<?xml version="1.0" encoding="UTF-8" standalone="no"?>
<!DOCTYPE svg PUBLIC "-//W3C//DTD SVG 1.1//EN"
 "http://www.w3.org/Graphics/SVG/1.1/DTD/svg11.dtd">
<!-- Generated by graphviz version 2.43.0 (0)
 -->
<!-- Title: gui.PageKeygen.KeygenPage._validate_user_entries Pages: 1 -->
<svg width="375pt" height="134pt"
 viewBox="0.00 0.00 375.00 134.00" xmlns="http://www.w3.org/2000/svg" xmlns:xlink="http://www.w3.org/1999/xlink">
<g id="graph0" class="graph" transform="scale(1 1) rotate(0) translate(4 130)">
<title>gui.PageKeygen.KeygenPage._validate_user_entries</title>
<!-- Node1 -->
<g id="Node000001" class="node">
<title>Node1</title>
<g id="a_Node000001"><a xlink:title="Validates user input before key generation.">
<polygon fill="#999999" stroke="#666666" points="367,-78 208,-78 208,-48 367,-48 367,-78"/>
<text text-anchor="start" x="216" y="-66" font-family="Helvetica,sans-Serif" font-size="10.00">gui.PageKeygen.KeygenPage.</text>
<text text-anchor="middle" x="287.5" y="-55" font-family="Helvetica,sans-Serif" font-size="10.00">_validate_user_entries</text>
</a>
</g>
</g>
<!-- Node2 -->
<g id="Node000002" class="node">
<title>Node2</title>
<g id="a_Node000002"><a xlink:href="classgui_1_1PageKeygen_1_1KeygenPage.html#a3d6e2e3022d6afc361d2e6553d397150" target="_top" xlink:title="Initiates RSA key pair generation and encryption process.">
<polygon fill="white" stroke="#666666" points="172,-126 0,-126 0,-96 172,-96 172,-126"/>
<text text-anchor="start" x="8" y="-114" font-family="Helvetica,sans-Serif" font-size="10.00">gui.PageKeygen.KeygenPage.</text>
<text text-anchor="middle" x="86" y="-103" font-family="Helvetica,sans-Serif" font-size="10.00">_generate_and_encrypt_keypair</text>
</a>
</g>
</g>
<!-- Node1&#45;&gt;Node2 -->
<g id="edge1_Node000001_Node000002" class="edge">
<title>Node1&#45;&gt;Node2</title>
<g id="a_edge1_Node000001_Node000002"><a xlink:title=" ">
<path fill="none" stroke="#63b8ff" d="M214.01,-80.44C192.82,-85.54 169.85,-91.07 149.35,-96"/>
<polygon fill="#63b8ff" stroke="#63b8ff" points="215.02,-83.8 223.92,-78.06 213.38,-76.99 215.02,-83.8"/>
</a>
</g>
</g>
<!-- Node3 -->
<g id="Node000003" class="node">
<title>Node3</title>
<g id="a_Node000003"><a xlink:href="classgui_1_1PageSign_1_1SignPage.html#a435bb643ca89e3fd922cd367ef8d6a6c" target="_top" xlink:title="Initiates the PDF signing process with the private key.">
<polygon fill="white" stroke="#666666" points="150.5,-78 21.5,-78 21.5,-48 150.5,-48 150.5,-78"/>
<text text-anchor="start" x="29.5" y="-66" font-family="Helvetica,sans-Serif" font-size="10.00">gui.PageSign.SignPage.</text>
<text text-anchor="middle" x="86" y="-55" font-family="Helvetica,sans-Serif" font-size="10.00">_sign_pdf_file</text>
</a>
</g>
</g>
<!-- Node1&#45;&gt;Node3 -->
<g id="edge2_Node000001_Node000003" class="edge">
<title>Node1&#45;&gt;Node3</title>
<g id="a_edge2_Node000001_Node000003"><a xlink:title=" ">
<path fill="none" stroke="#63b8ff" d="M197.62,-63C181.82,-63 165.65,-63 150.72,-63"/>
<polygon fill="#63b8ff" stroke="#63b8ff" points="197.94,-66.5 207.94,-63 197.94,-59.5 197.94,-66.5"/>
</a>
</g>
</g>
<!-- Node4 -->
<g id="Node000004" class="node">
<title>Node4</title>
<g id="a_Node000004"><a xlink:href="classgui_1_1PageVerify_1_1VerifyPage.html#a8bed998f2974db1c24e198133c258188" target="_top" xlink:title="Initiates the PDF signature verification process.">
<polygon fill="white" stroke="#666666" points="156.5,-30 15.5,-30 15.5,0 156.5,0 156.5,-30"/>
<text text-anchor="start" x="23.5" y="-18" font-family="Helvetica,sans-Serif" font-size="10.00">gui.PageVerify.VerifyPage.</text>
<text text-anchor="middle" x="86" y="-7" font-family="Helvetica,sans-Serif" font-size="10.00">_verify_pdf_file</text>
</a>
</g>
</g>
<!-- Node1&#45;&gt;Node4 -->
<g id="edge3_Node000001_Node000004" class="edge">
<title>Node1&#45;&gt;Node4</title>
<g id="a_edge3_Node000001_Node000004"><a xlink:title=" ">
<path fill="none" stroke="#63b8ff" d="M214.01,-45.56C192.82,-40.46 169.85,-34.93 149.35,-30"/>
<polygon fill="#63b8ff" stroke="#63b8ff" points="213.38,-49.01 223.92,-47.94 215.02,-42.2 213.38,-49.01"/>
</a>
</g>
</g>
</g>
</svg>
