<?xml version="1.0" encoding="UTF-8" standalone="no"?>
<!DOCTYPE svg PUBLIC "-//W3C//DTD SVG 1.1//EN"
 "http://www.w3.org/Graphics/SVG/1.1/DTD/svg11.dtd">
<!-- Generated by graphviz version 2.43.0 (0)
 -->
<!-- Title: gui.PageKeygen.KeygenPage Pages: 1 -->
<svg width="165pt" height="490pt"
 viewBox="0.00 0.00 165.00 490.00" xmlns="http://www.w3.org/2000/svg" xmlns:xlink="http://www.w3.org/1999/xlink">
<g id="graph0" class="graph" transform="scale(1 1) rotate(0) translate(4 486)">
<title>gui.PageKeygen.KeygenPage</title>
<!-- Node1 -->
<g id="Node000001" class="node">
<title>Node1</title>
<g id="a_Node000001"><a xlink:title="Key generation page class.">
<polygon fill="#999999" stroke="transparent" points="157,-397 0,-397 0,0 157,0 157,-397"/>
<text text-anchor="start" x="9" y="-384.5" font-family="Helvetica,sans-Serif" font-size="10.00">gui.PageKeygen.KeygenPage</text>
<text text-anchor="start" x="4.5" y="-369.5" font-family="Helvetica,sans-Serif" font-size="10.00">+</text>
<text text-anchor="start" x="17.5" y="-369.5" font-family="Helvetica,sans-Serif" font-size="10.00">parent_app</text>
<text text-anchor="start" x="4.5" y="-354.5" font-family="Helvetica,sans-Serif" font-size="10.00">#</text>
<text text-anchor="start" x="17.5" y="-354.5" font-family="Helvetica,sans-Serif" font-size="10.00">_numpad_buttons</text>
<text text-anchor="start" x="4.5" y="-339.5" font-family="Helvetica,sans-Serif" font-size="10.00">#</text>
<text text-anchor="start" x="17.5" y="-339.5" font-family="Helvetica,sans-Serif" font-size="10.00">_layout</text>
<text text-anchor="start" x="4.5" y="-324.5" font-family="Helvetica,sans-Serif" font-size="10.00">#</text>
<text text-anchor="start" x="17.5" y="-324.5" font-family="Helvetica,sans-Serif" font-size="10.00">_group</text>
<text text-anchor="start" x="4.5" y="-309.5" font-family="Helvetica,sans-Serif" font-size="10.00">#</text>
<text text-anchor="start" x="17.5" y="-309.5" font-family="Helvetica,sans-Serif" font-size="10.00">_group_layout</text>
<text text-anchor="start" x="4.5" y="-294.5" font-family="Helvetica,sans-Serif" font-size="10.00">#</text>
<text text-anchor="start" x="17.5" y="-294.5" font-family="Helvetica,sans-Serif" font-size="10.00">_pin_layout</text>
<text text-anchor="start" x="4.5" y="-279.5" font-family="Helvetica,sans-Serif" font-size="10.00">#</text>
<text text-anchor="start" x="17.5" y="-279.5" font-family="Helvetica,sans-Serif" font-size="10.00">_numpad_layout</text>
<text text-anchor="start" x="4.5" y="-264.5" font-family="Helvetica,sans-Serif" font-size="10.00">#</text>
<text text-anchor="start" x="17.5" y="-264.5" font-family="Helvetica,sans-Serif" font-size="10.00">_btn_generate_keys</text>
<text text-anchor="start" x="4.5" y="-249.5" font-family="Helvetica,sans-Serif" font-size="10.00">#</text>
<text text-anchor="start" x="17.5" y="-249.5" font-family="Helvetica,sans-Serif" font-size="10.00">_input_pin</text>
<text text-anchor="start" x="4.5" y="-234.5" font-family="Helvetica,sans-Serif" font-size="10.00">#</text>
<text text-anchor="start" x="17.5" y="-234.5" font-family="Helvetica,sans-Serif" font-size="10.00">_btn_save_key</text>
<text text-anchor="start" x="4.5" y="-219.5" font-family="Helvetica,sans-Serif" font-size="10.00">#</text>
<text text-anchor="start" x="17.5" y="-219.5" font-family="Helvetica,sans-Serif" font-size="10.00">_generate_and_encrypt</text>
<text text-anchor="start" x="17.5" y="-208.5" font-family="Helvetica,sans-Serif" font-size="10.00">_keypair</text>
<text text-anchor="start" x="17.5" y="-193.5" font-family="Helvetica,sans-Serif" font-size="10.00">and 10 more...</text>
<text text-anchor="start" x="4.5" y="-178.5" font-family="Helvetica,sans-Serif" font-size="10.00">+</text>
<text text-anchor="start" x="17.5" y="-178.5" font-family="Helvetica,sans-Serif" font-size="10.00">__init__()</text>
<text text-anchor="start" x="4.5" y="-163.5" font-family="Helvetica,sans-Serif" font-size="10.00">+</text>
<text text-anchor="start" x="17.5" y="-163.5" font-family="Helvetica,sans-Serif" font-size="10.00">refresh_page()</text>
<text text-anchor="start" x="4.5" y="-148.5" font-family="Helvetica,sans-Serif" font-size="10.00">#</text>
<text text-anchor="start" x="17.5" y="-148.5" font-family="Helvetica,sans-Serif" font-size="10.00">_init_ui()</text>
<text text-anchor="start" x="4.5" y="-133.5" font-family="Helvetica,sans-Serif" font-size="10.00">#</text>
<text text-anchor="start" x="17.5" y="-133.5" font-family="Helvetica,sans-Serif" font-size="10.00">_pinpad_init()</text>
<text text-anchor="start" x="4.5" y="-118.5" font-family="Helvetica,sans-Serif" font-size="10.00">#</text>
<text text-anchor="start" x="17.5" y="-118.5" font-family="Helvetica,sans-Serif" font-size="10.00">_add_digit()</text>
<text text-anchor="start" x="4.5" y="-103.5" font-family="Helvetica,sans-Serif" font-size="10.00">#</text>
<text text-anchor="start" x="17.5" y="-103.5" font-family="Helvetica,sans-Serif" font-size="10.00">_remove_digit()</text>
<text text-anchor="start" x="4.5" y="-88.5" font-family="Helvetica,sans-Serif" font-size="10.00">#</text>
<text text-anchor="start" x="17.5" y="-88.5" font-family="Helvetica,sans-Serif" font-size="10.00">_toggle_pin_visibility()</text>
<text text-anchor="start" x="4.5" y="-73.5" font-family="Helvetica,sans-Serif" font-size="10.00">#</text>
<text text-anchor="start" x="17.5" y="-73.5" font-family="Helvetica,sans-Serif" font-size="10.00">_validate_user_entries()</text>
<text text-anchor="start" x="4.5" y="-58.5" font-family="Helvetica,sans-Serif" font-size="10.00">#</text>
<text text-anchor="start" x="17.5" y="-58.5" font-family="Helvetica,sans-Serif" font-size="10.00">_generate_and_encrypt</text>
<text text-anchor="start" x="17.5" y="-47.5" font-family="Helvetica,sans-Serif" font-size="10.00">_keypair()</text>
<text text-anchor="start" x="4.5" y="-32.5" font-family="Helvetica,sans-Serif" font-size="10.00">#</text>
<text text-anchor="start" x="17.5" y="-32.5" font-family="Helvetica,sans-Serif" font-size="10.00">_rsa_worker_update</text>
<text text-anchor="start" x="17.5" y="-21.5" font-family="Helvetica,sans-Serif" font-size="10.00">_progress()</text>
<text text-anchor="start" x="4.5" y="-6.5" font-family="Helvetica,sans-Serif" font-size="10.00">#</text>
<text text-anchor="start" x="17.5" y="-6.5" font-family="Helvetica,sans-Serif" font-size="10.00">_rsa_worker_task_finished()</text>
<polygon fill="#666666" stroke="#666666" points="0.5,-379.5 0.5,-379.5 157.5,-379.5 157.5,-379.5 0.5,-379.5"/>
<polygon fill="#666666" stroke="#666666" points="0.5,-188.5 0.5,-188.5 15.5,-188.5 15.5,-188.5 0.5,-188.5"/>
<polygon fill="#666666" stroke="#666666" points="15.5,-188.5 15.5,-188.5 157.5,-188.5 157.5,-188.5 15.5,-188.5"/>
<polygon fill="none" stroke="#666666" points="0,0 0,-397 157,-397 157,0 0,0"/>
</a>
</g>
</g>
<!-- Node2 -->
<g id="Node000002" class="node">
<title>Node2</title>
<g id="a_Node000002"><a xlink:title=" ">
<polygon fill="white" stroke="transparent" points="105,-482 52,-482 52,-433 105,-433 105,-482"/>
<text text-anchor="start" x="57.5" y="-469.5" font-family="Helvetica,sans-Serif" font-size="10.00">QWidget</text>
<text text-anchor="start" x="77" y="-454.5" font-family="Helvetica,sans-Serif" font-size="10.00"> </text>
<text text-anchor="start" x="77" y="-439.5" font-family="Helvetica,sans-Serif" font-size="10.00"> </text>
<polygon fill="#666666" stroke="#666666" points="52.5,-464.5 52.5,-464.5 105.5,-464.5 105.5,-464.5 52.5,-464.5"/>
<polygon fill="#666666" stroke="#666666" points="52.5,-449.5 52.5,-449.5 105.5,-449.5 105.5,-449.5 52.5,-449.5"/>
<polygon fill="none" stroke="#666666" points="52,-433 52,-482 105,-482 105,-433 52,-433"/>
</a>
</g>
</g>
<!-- Node2&#45;&gt;Node1 -->
<g id="edge1_Node000001_Node000002" class="edge">
<title>Node2&#45;&gt;Node1</title>
<g id="a_edge1_Node000001_Node000002"><a xlink:title=" ">
<path fill="none" stroke="#63b8ff" d="M78.5,-422.67C78.5,-415.03 78.5,-406.38 78.5,-397.03"/>
<polygon fill="none" stroke="#63b8ff" points="75,-422.78 78.5,-432.78 82,-422.78 75,-422.78"/>
</a>
</g>
</g>
</g>
</svg>
