<?xml version="1.0" encoding="UTF-8" standalone="no"?>
<!DOCTYPE svg PUBLIC "-//W3C//DTD SVG 1.1//EN"
 "http://www.w3.org/Graphics/SVG/1.1/DTD/svg11.dtd">
<!-- Generated by graphviz version 2.43.0 (0)
 -->
<!-- Title: gui.SignatureApp.SignatureApp._init_ui Pages: 1 -->
<svg width="527pt" height="278pt"
 viewBox="0.00 0.00 527.00 278.00" xmlns="http://www.w3.org/2000/svg" xmlns:xlink="http://www.w3.org/1999/xlink">
<g id="graph0" class="graph" transform="scale(1 1) rotate(0) translate(4 274)">
<title>gui.SignatureApp.SignatureApp._init_ui</title>
<!-- Node1 -->
<g id="Node000001" class="node">
<title>Node1</title>
<g id="a_Node000001"><a xlink:title="Sets up the user interface.">
<polygon fill="#999999" stroke="#666666" points="149,-150 0,-150 0,-120 149,-120 149,-150"/>
<text text-anchor="start" x="8" y="-138" font-family="Helvetica,sans-Serif" font-size="10.00">gui.SignatureApp.Signature</text>
<text text-anchor="middle" x="74.5" y="-127" font-family="Helvetica,sans-Serif" font-size="10.00">App._init_ui</text>
</a>
</g>
</g>
<!-- Node2 -->
<g id="Node000002" class="node">
<title>Node2</title>
<g id="a_Node000002"><a xlink:href="classgui_1_1AuxiliaryApp_1_1AuxiliaryApp.html#a2a483b85085e5c49441bed70c42f1876" target="_top" xlink:title="Creates the content area with all pages.">
<polygon fill="white" stroke="#666666" points="331,-270 188,-270 188,-240 331,-240 331,-270"/>
<text text-anchor="start" x="196" y="-258" font-family="Helvetica,sans-Serif" font-size="10.00">gui.AuxiliaryApp.Auxiliary</text>
<text text-anchor="middle" x="259.5" y="-247" font-family="Helvetica,sans-Serif" font-size="10.00">App._create_content_area</text>
</a>
</g>
</g>
<!-- Node1&#45;&gt;Node2 -->
<g id="edge1_Node000001_Node000002" class="edge">
<title>Node1&#45;&gt;Node2</title>
<g id="a_edge1_Node000001_Node000002"><a xlink:title=" ">
<path fill="none" stroke="#63b8ff" d="M88.91,-150.1C108.23,-171.02 145.9,-208.73 185,-231 188.07,-232.75 191.28,-234.39 194.58,-235.93"/>
<polygon fill="#63b8ff" stroke="#63b8ff" points="193.46,-239.26 204.03,-240 196.23,-232.83 193.46,-239.26"/>
</a>
</g>
</g>
<!-- Node3 -->
<g id="Node000003" class="node">
<title>Node3</title>
<g id="a_Node000003"><a xlink:href="classgui_1_1SignatureApp_1_1SignatureApp.html#a33e33c901f8ba992a917c8a3cff0f48f" target="_top" xlink:title="Creates the content area with all pages.">
<polygon fill="white" stroke="#666666" points="334,-222 185,-222 185,-192 334,-192 334,-222"/>
<text text-anchor="start" x="193" y="-210" font-family="Helvetica,sans-Serif" font-size="10.00">gui.SignatureApp.Signature</text>
<text text-anchor="middle" x="259.5" y="-199" font-family="Helvetica,sans-Serif" font-size="10.00">App._create_content_area</text>
</a>
</g>
</g>
<!-- Node1&#45;&gt;Node3 -->
<g id="edge2_Node000001_Node000003" class="edge">
<title>Node1&#45;&gt;Node3</title>
<g id="a_edge2_Node000001_Node000003"><a xlink:title=" ">
<path fill="none" stroke="#63b8ff" d="M107.74,-150.12C129.37,-160.02 158.62,-172.94 185,-183 190.02,-184.91 195.26,-186.81 200.54,-188.66"/>
<polygon fill="#63b8ff" stroke="#63b8ff" points="199.44,-191.98 210.03,-191.92 201.71,-185.36 199.44,-191.98"/>
</a>
</g>
</g>
<!-- Node5 -->
<g id="Node000005" class="node">
<title>Node5</title>
<g id="a_Node000005"><a xlink:href="classgui_1_1AuxiliaryApp_1_1AuxiliaryApp.html#a9b908244ca043cf125b9f023ca8a1907" target="_top" xlink:title="Creates the side navigation menu.">
<polygon fill="white" stroke="#666666" points="331,-174 188,-174 188,-144 331,-144 331,-174"/>
<text text-anchor="start" x="196" y="-162" font-family="Helvetica,sans-Serif" font-size="10.00">gui.AuxiliaryApp.Auxiliary</text>
<text text-anchor="middle" x="259.5" y="-151" font-family="Helvetica,sans-Serif" font-size="10.00">App._create_side_menu</text>
</a>
</g>
</g>
<!-- Node1&#45;&gt;Node5 -->
<g id="edge4_Node000001_Node000005" class="edge">
<title>Node1&#45;&gt;Node5</title>
<g id="a_edge4_Node000001_Node000005"><a xlink:title=" ">
<path fill="none" stroke="#63b8ff" d="M149.14,-144.66C158.65,-145.91 168.43,-147.19 178.04,-148.45"/>
<polygon fill="#63b8ff" stroke="#63b8ff" points="177.61,-151.92 187.98,-149.75 178.52,-144.98 177.61,-151.92"/>
</a>
</g>
</g>
<!-- Node6 -->
<g id="Node000006" class="node">
<title>Node6</title>
<g id="a_Node000006"><a xlink:href="classgui_1_1SignatureApp_1_1SignatureApp.html#af2d05d73902e7d75d029b4d750aced90" target="_top" xlink:title="Creates the side navigation menu.">
<polygon fill="white" stroke="#666666" points="334,-126 185,-126 185,-96 334,-96 334,-126"/>
<text text-anchor="start" x="193" y="-114" font-family="Helvetica,sans-Serif" font-size="10.00">gui.SignatureApp.Signature</text>
<text text-anchor="middle" x="259.5" y="-103" font-family="Helvetica,sans-Serif" font-size="10.00">App._create_side_menu</text>
</a>
</g>
</g>
<!-- Node1&#45;&gt;Node6 -->
<g id="edge5_Node000001_Node000006" class="edge">
<title>Node1&#45;&gt;Node6</title>
<g id="a_edge5_Node000001_Node000006"><a xlink:title=" ">
<path fill="none" stroke="#63b8ff" d="M149.14,-125.34C157.57,-124.24 166.2,-123.11 174.74,-121.98"/>
<polygon fill="#63b8ff" stroke="#63b8ff" points="175.25,-125.45 184.71,-120.68 174.34,-118.51 175.25,-125.45"/>
</a>
</g>
</g>
<!-- Node7 -->
<g id="Node000007" class="node">
<title>Node7</title>
<g id="a_Node000007"><a xlink:href="classgui_1_1AuxiliaryApp_1_1AuxiliaryApp.html#aeeba936f77693f06dd008ce9321e9fec" target="_top" xlink:title="Loads the application stylesheet from CSS file.">
<polygon fill="white" stroke="#666666" points="331,-78 188,-78 188,-48 331,-48 331,-78"/>
<text text-anchor="start" x="196" y="-66" font-family="Helvetica,sans-Serif" font-size="10.00">gui.AuxiliaryApp.Auxiliary</text>
<text text-anchor="middle" x="259.5" y="-55" font-family="Helvetica,sans-Serif" font-size="10.00">App._load_stylesheet</text>
</a>
</g>
</g>
<!-- Node1&#45;&gt;Node7 -->
<g id="edge6_Node000001_Node000007" class="edge">
<title>Node1&#45;&gt;Node7</title>
<g id="a_edge6_Node000001_Node000007"><a xlink:title=" ">
<path fill="none" stroke="#63b8ff" d="M107.74,-119.88C129.37,-109.98 158.62,-97.06 185,-87 190.02,-85.09 195.26,-83.19 200.54,-81.34"/>
<polygon fill="#63b8ff" stroke="#63b8ff" points="201.71,-84.64 210.03,-78.08 199.44,-78.02 201.71,-84.64"/>
</a>
</g>
</g>
<!-- Node8 -->
<g id="Node000008" class="node">
<title>Node8</title>
<g id="a_Node000008"><a xlink:href="classgui_1_1SignatureApp_1_1SignatureApp.html#a02a03b3803e553ce31c305ce03c57c0d" target="_top" xlink:title="Loads the application stylesheet from CSS file.">
<polygon fill="white" stroke="#666666" points="334,-30 185,-30 185,0 334,0 334,-30"/>
<text text-anchor="start" x="193" y="-18" font-family="Helvetica,sans-Serif" font-size="10.00">gui.SignatureApp.Signature</text>
<text text-anchor="middle" x="259.5" y="-7" font-family="Helvetica,sans-Serif" font-size="10.00">App._load_stylesheet</text>
</a>
</g>
</g>
<!-- Node1&#45;&gt;Node8 -->
<g id="edge7_Node000001_Node000008" class="edge">
<title>Node1&#45;&gt;Node8</title>
<g id="a_edge7_Node000001_Node000008"><a xlink:title=" ">
<path fill="none" stroke="#63b8ff" d="M88.91,-119.9C108.23,-98.98 145.9,-61.27 185,-39 188.07,-37.25 191.28,-35.61 194.58,-34.07"/>
<polygon fill="#63b8ff" stroke="#63b8ff" points="196.23,-37.17 204.03,-30 193.46,-30.74 196.23,-37.17"/>
</a>
</g>
</g>
<!-- Node4 -->
<g id="Node000004" class="node">
<title>Node4</title>
<g id="a_Node000004"><a xlink:href="classgui_1_1SignatureApp_1_1SignatureApp.html#ade66c4b829fed9ce83fabe6ce64cfc52" target="_top" xlink:title="Switches to the specified page.">
<polygon fill="white" stroke="#666666" points="519,-222 370,-222 370,-192 519,-192 519,-222"/>
<text text-anchor="start" x="378" y="-210" font-family="Helvetica,sans-Serif" font-size="10.00">gui.SignatureApp.Signature</text>
<text text-anchor="middle" x="444.5" y="-199" font-family="Helvetica,sans-Serif" font-size="10.00">App._switch_page</text>
</a>
</g>
</g>
<!-- Node3&#45;&gt;Node4 -->
<g id="edge3_Node000003_Node000004" class="edge">
<title>Node3&#45;&gt;Node4</title>
<g id="a_edge3_Node000003_Node000004"><a xlink:title=" ">
<path fill="none" stroke="#63b8ff" d="M334.14,-207C342.47,-207 351.01,-207 359.46,-207"/>
<polygon fill="#63b8ff" stroke="#63b8ff" points="359.71,-210.5 369.71,-207 359.71,-203.5 359.71,-210.5"/>
</a>
</g>
</g>
</g>
</svg>
