<?xml version="1.0" encoding="UTF-8" standalone="no"?>
<!DOCTYPE svg PUBLIC "-//W3C//DTD SVG 1.1//EN"
 "http://www.w3.org/Graphics/SVG/1.1/DTD/svg11.dtd">
<!-- Generated by graphviz version 2.43.0 (0)
 -->
<!-- Title: gui.SignatureApp.SignatureApp._create_side_menu Pages: 1 -->
<svg width="342pt" height="86pt"
 viewBox="0.00 0.00 342.00 86.00" xmlns="http://www.w3.org/2000/svg" xmlns:xlink="http://www.w3.org/1999/xlink">
<g id="graph0" class="graph" transform="scale(1 1) rotate(0) translate(4 82)">
<title>gui.SignatureApp.SignatureApp._create_side_menu</title>
<!-- Node1 -->
<g id="Node000001" class="node">
<title>Node1</title>
<g id="a_Node000001"><a xlink:title="Creates the side navigation menu.">
<polygon fill="#999999" stroke="#666666" points="334,-54 185,-54 185,-24 334,-24 334,-54"/>
<text text-anchor="start" x="193" y="-42" font-family="Helvetica,sans-Serif" font-size="10.00">gui.SignatureApp.Signature</text>
<text text-anchor="middle" x="259.5" y="-31" font-family="Helvetica,sans-Serif" font-size="10.00">App._create_side_menu</text>
</a>
</g>
</g>
<!-- Node2 -->
<g id="Node000002" class="node">
<title>Node2</title>
<g id="a_Node000002"><a xlink:href="classgui_1_1AuxiliaryApp_1_1AuxiliaryApp.html#acde95e01fef9d5b4350137ffb06aa464" target="_top" xlink:title="Sets up the user interface.">
<polygon fill="white" stroke="#666666" points="146,-78 3,-78 3,-48 146,-48 146,-78"/>
<text text-anchor="start" x="11" y="-66" font-family="Helvetica,sans-Serif" font-size="10.00">gui.AuxiliaryApp.Auxiliary</text>
<text text-anchor="middle" x="74.5" y="-55" font-family="Helvetica,sans-Serif" font-size="10.00">App._init_ui</text>
</a>
</g>
</g>
<!-- Node1&#45;&gt;Node2 -->
<g id="edge1_Node000001_Node000002" class="edge">
<title>Node1&#45;&gt;Node2</title>
<g id="a_edge1_Node000001_Node000002"><a xlink:title=" ">
<path fill="none" stroke="#63b8ff" d="M174.87,-49.97C165.23,-51.23 155.47,-52.51 146.02,-53.75"/>
<polygon fill="#63b8ff" stroke="#63b8ff" points="175.4,-53.43 184.86,-48.66 174.49,-46.49 175.4,-53.43"/>
</a>
</g>
</g>
<!-- Node3 -->
<g id="Node000003" class="node">
<title>Node3</title>
<g id="a_Node000003"><a xlink:href="classgui_1_1SignatureApp_1_1SignatureApp.html#aae1558e10243dfc609ad7968eff6a6e8" target="_top" xlink:title="Sets up the user interface.">
<polygon fill="white" stroke="#666666" points="149,-30 0,-30 0,0 149,0 149,-30"/>
<text text-anchor="start" x="8" y="-18" font-family="Helvetica,sans-Serif" font-size="10.00">gui.SignatureApp.Signature</text>
<text text-anchor="middle" x="74.5" y="-7" font-family="Helvetica,sans-Serif" font-size="10.00">App._init_ui</text>
</a>
</g>
</g>
<!-- Node1&#45;&gt;Node3 -->
<g id="edge2_Node000001_Node000003" class="edge">
<title>Node1&#45;&gt;Node3</title>
<g id="a_edge2_Node000001_Node000003"><a xlink:title=" ">
<path fill="none" stroke="#63b8ff" d="M174.89,-28.03C166.35,-26.91 157.72,-25.78 149.29,-24.68"/>
<polygon fill="#63b8ff" stroke="#63b8ff" points="174.49,-31.51 184.86,-29.34 175.4,-24.57 174.49,-31.51"/>
</a>
</g>
</g>
</g>
</svg>
