<?xml version="1.0" encoding="UTF-8" standalone="no"?>
<!DOCTYPE svg PUBLIC "-//W3C//DTD SVG 1.1//EN"
 "http://www.w3.org/Graphics/SVG/1.1/DTD/svg11.dtd">
<!-- Generated by graphviz version 2.43.0 (0)
 -->
<!-- Title: gui.SignatureApp.SignatureApp Pages: 1 -->
<svg width="170pt" height="472pt"
 viewBox="0.00 0.00 170.00 472.00" xmlns="http://www.w3.org/2000/svg" xmlns:xlink="http://www.w3.org/1999/xlink">
<g id="graph0" class="graph" transform="scale(1 1) rotate(0) translate(4 468)">
<title>gui.SignatureApp.SignatureApp</title>
<!-- Node1 -->
<g id="Node000001" class="node">
<title>Node1</title>
<g id="a_Node000001"><a xlink:title="Main application window class.">
<polygon fill="#999999" stroke="transparent" points="162,-379 0,-379 0,0 162,0 162,-379"/>
<text text-anchor="start" x="5" y="-366.5" font-family="Helvetica,sans-Serif" font-size="10.00">gui.SignatureApp.SignatureApp</text>
<text text-anchor="start" x="11" y="-351.5" font-family="Helvetica,sans-Serif" font-size="10.00">+</text>
<text text-anchor="start" x="31" y="-351.5" font-family="Helvetica,sans-Serif" font-size="10.00">public_key_found</text>
<text text-anchor="start" x="11" y="-336.5" font-family="Helvetica,sans-Serif" font-size="10.00">+</text>
<text text-anchor="start" x="31" y="-336.5" font-family="Helvetica,sans-Serif" font-size="10.00">public_key_path</text>
<text text-anchor="start" x="11" y="-321.5" font-family="Helvetica,sans-Serif" font-size="10.00">+</text>
<text text-anchor="start" x="31" y="-321.5" font-family="Helvetica,sans-Serif" font-size="10.00">usb_path</text>
<text text-anchor="start" x="11" y="-306.5" font-family="Helvetica,sans-Serif" font-size="10.00">+</text>
<text text-anchor="start" x="31" y="-306.5" font-family="Helvetica,sans-Serif" font-size="10.00">private_key_found</text>
<text text-anchor="start" x="11" y="-291.5" font-family="Helvetica,sans-Serif" font-size="10.00">+</text>
<text text-anchor="start" x="31" y="-291.5" font-family="Helvetica,sans-Serif" font-size="10.00">private_key_path</text>
<text text-anchor="start" x="11" y="-276.5" font-family="Helvetica,sans-Serif" font-size="10.00">#</text>
<text text-anchor="start" x="31" y="-276.5" font-family="Helvetica,sans-Serif" font-size="10.00">_main_layout</text>
<text text-anchor="start" x="11" y="-261.5" font-family="Helvetica,sans-Serif" font-size="10.00">#</text>
<text text-anchor="start" x="31" y="-261.5" font-family="Helvetica,sans-Serif" font-size="10.00">_side_menu</text>
<text text-anchor="start" x="11" y="-246.5" font-family="Helvetica,sans-Serif" font-size="10.00">#</text>
<text text-anchor="start" x="31" y="-246.5" font-family="Helvetica,sans-Serif" font-size="10.00">_content_area</text>
<text text-anchor="start" x="11" y="-231.5" font-family="Helvetica,sans-Serif" font-size="10.00">#</text>
<text text-anchor="start" x="31" y="-231.5" font-family="Helvetica,sans-Serif" font-size="10.00">_btn_usb</text>
<text text-anchor="start" x="11" y="-216.5" font-family="Helvetica,sans-Serif" font-size="10.00">#</text>
<text text-anchor="start" x="31" y="-216.5" font-family="Helvetica,sans-Serif" font-size="10.00">_btn_verify</text>
<text text-anchor="start" x="11" y="-201.5" font-family="Helvetica,sans-Serif" font-size="10.00">#</text>
<text text-anchor="start" x="31" y="-201.5" font-family="Helvetica,sans-Serif" font-size="10.00">_btn_sign</text>
<text text-anchor="start" x="11" y="-186.5" font-family="Helvetica,sans-Serif" font-size="10.00">#</text>
<text text-anchor="start" x="31" y="-186.5" font-family="Helvetica,sans-Serif" font-size="10.00">_btn_keygen</text>
<text text-anchor="start" x="11" y="-171.5" font-family="Helvetica,sans-Serif" font-size="10.00">#</text>
<text text-anchor="start" x="31" y="-171.5" font-family="Helvetica,sans-Serif" font-size="10.00">_page_verify</text>
<text text-anchor="start" x="11" y="-156.5" font-family="Helvetica,sans-Serif" font-size="10.00">#</text>
<text text-anchor="start" x="31" y="-156.5" font-family="Helvetica,sans-Serif" font-size="10.00">_page_sign</text>
<text text-anchor="start" x="11" y="-141.5" font-family="Helvetica,sans-Serif" font-size="10.00">#</text>
<text text-anchor="start" x="31" y="-141.5" font-family="Helvetica,sans-Serif" font-size="10.00">_page_keygen</text>
<text text-anchor="start" x="11" y="-126.5" font-family="Helvetica,sans-Serif" font-size="10.00">#</text>
<text text-anchor="start" x="31" y="-126.5" font-family="Helvetica,sans-Serif" font-size="10.00">_refresh_pages</text>
<text text-anchor="start" x="11" y="-111.5" font-family="Helvetica,sans-Serif" font-size="10.00">+</text>
<text text-anchor="start" x="31" y="-111.5" font-family="Helvetica,sans-Serif" font-size="10.00">__init__()</text>
<text text-anchor="start" x="11" y="-96.5" font-family="Helvetica,sans-Serif" font-size="10.00">#</text>
<text text-anchor="start" x="31" y="-96.5" font-family="Helvetica,sans-Serif" font-size="10.00">_init_ui()</text>
<text text-anchor="start" x="11" y="-81.5" font-family="Helvetica,sans-Serif" font-size="10.00">#</text>
<text text-anchor="start" x="31" y="-81.5" font-family="Helvetica,sans-Serif" font-size="10.00">_switch_page()</text>
<text text-anchor="start" x="11" y="-66.5" font-family="Helvetica,sans-Serif" font-size="10.00">#</text>
<text text-anchor="start" x="31" y="-66.5" font-family="Helvetica,sans-Serif" font-size="10.00">_update_usb_status()</text>
<text text-anchor="start" x="11" y="-51.5" font-family="Helvetica,sans-Serif" font-size="10.00">#</text>
<text text-anchor="start" x="31" y="-51.5" font-family="Helvetica,sans-Serif" font-size="10.00">_refresh_pages()</text>
<text text-anchor="start" x="11" y="-36.5" font-family="Helvetica,sans-Serif" font-size="10.00">#</text>
<text text-anchor="start" x="31" y="-36.5" font-family="Helvetica,sans-Serif" font-size="10.00">_load_stylesheet()</text>
<text text-anchor="start" x="11" y="-21.5" font-family="Helvetica,sans-Serif" font-size="10.00">#</text>
<text text-anchor="start" x="31" y="-21.5" font-family="Helvetica,sans-Serif" font-size="10.00">_create_side_menu()</text>
<text text-anchor="start" x="11" y="-6.5" font-family="Helvetica,sans-Serif" font-size="10.00">#</text>
<text text-anchor="start" x="31" y="-6.5" font-family="Helvetica,sans-Serif" font-size="10.00">_create_content_area()</text>
<polygon fill="#666666" stroke="#666666" points="0,-361.5 0,-361.5 162,-361.5 162,-361.5 0,-361.5"/>
<polygon fill="#666666" stroke="#666666" points="0,-121.5 0,-121.5 29,-121.5 29,-121.5 0,-121.5"/>
<polygon fill="#666666" stroke="#666666" points="29,-121.5 29,-121.5 162,-121.5 162,-121.5 29,-121.5"/>
<polygon fill="none" stroke="#666666" points="0,0 0,-379 162,-379 162,0 0,0"/>
</a>
</g>
</g>
<!-- Node2 -->
<g id="Node000002" class="node">
<title>Node2</title>
<g id="a_Node000002"><a xlink:title=" ">
<polygon fill="white" stroke="transparent" points="107.5,-464 54.5,-464 54.5,-415 107.5,-415 107.5,-464"/>
<text text-anchor="start" x="60" y="-451.5" font-family="Helvetica,sans-Serif" font-size="10.00">QWidget</text>
<text text-anchor="start" x="79.5" y="-436.5" font-family="Helvetica,sans-Serif" font-size="10.00"> </text>
<text text-anchor="start" x="79.5" y="-421.5" font-family="Helvetica,sans-Serif" font-size="10.00"> </text>
<polygon fill="#666666" stroke="#666666" points="55,-446.5 55,-446.5 108,-446.5 108,-446.5 55,-446.5"/>
<polygon fill="#666666" stroke="#666666" points="55,-431.5 55,-431.5 108,-431.5 108,-431.5 55,-431.5"/>
<polygon fill="none" stroke="#666666" points="54.5,-415 54.5,-464 107.5,-464 107.5,-415 54.5,-415"/>
</a>
</g>
</g>
<!-- Node2&#45;&gt;Node1 -->
<g id="edge1_Node000001_Node000002" class="edge">
<title>Node2&#45;&gt;Node1</title>
<g id="a_edge1_Node000001_Node000002"><a xlink:title=" ">
<path fill="none" stroke="#63b8ff" d="M81,-404.61C81,-396.98 81,-388.34 81,-379.04"/>
<polygon fill="none" stroke="#63b8ff" points="77.5,-404.72 81,-414.72 84.5,-404.72 77.5,-404.72"/>
</a>
</g>
</g>
</g>
</svg>
