<?xml version="1.0" encoding="UTF-8" standalone="no"?>
<!DOCTYPE svg PUBLIC "-//W3C//DTD SVG 1.1//EN"
 "http://www.w3.org/Graphics/SVG/1.1/DTD/svg11.dtd">
<!-- Generated by graphviz version 2.43.0 (0)
 -->
<!-- Title: gui.PageSign.SignPage._sign_pdf_file Pages: 1 -->
<svg width="332pt" height="134pt"
 viewBox="0.00 0.00 332.00 134.00" xmlns="http://www.w3.org/2000/svg" xmlns:xlink="http://www.w3.org/1999/xlink">
<g id="graph0" class="graph" transform="scale(1 1) rotate(0) translate(4 130)">
<title>gui.PageSign.SignPage._sign_pdf_file</title>
<!-- Node1 -->
<g id="Node000001" class="node">
<title>Node1</title>
<g id="a_Node000001"><a xlink:title="Initiates the PDF signing process with the private key.">
<polygon fill="#999999" stroke="#666666" points="129,-78 0,-78 0,-48 129,-48 129,-78"/>
<text text-anchor="start" x="8" y="-66" font-family="Helvetica,sans-Serif" font-size="10.00">gui.PageSign.SignPage.</text>
<text text-anchor="middle" x="64.5" y="-55" font-family="Helvetica,sans-Serif" font-size="10.00">_sign_pdf_file</text>
</a>
</g>
</g>
<!-- Node2 -->
<g id="Node000002" class="node">
<title>Node2</title>
<g id="a_Node000002"><a xlink:href="classgui_1_1PageKeygen_1_1KeygenPage.html#ab275367be11b21c44c69d669a4ada5f3" target="_top" xlink:title="Validates user input before key generation.">
<polygon fill="white" stroke="#666666" points="324,-126 165,-126 165,-96 324,-96 324,-126"/>
<text text-anchor="start" x="173" y="-114" font-family="Helvetica,sans-Serif" font-size="10.00">gui.PageKeygen.KeygenPage.</text>
<text text-anchor="middle" x="244.5" y="-103" font-family="Helvetica,sans-Serif" font-size="10.00">_validate_user_entries</text>
</a>
</g>
</g>
<!-- Node1&#45;&gt;Node2 -->
<g id="edge1_Node000001_Node000002" class="edge">
<title>Node1&#45;&gt;Node2</title>
<g id="a_edge1_Node000001_Node000002"><a xlink:title=" ">
<path fill="none" stroke="#63b8ff" d="M121.33,-78.06C139.31,-82.9 159.39,-88.32 178,-93.34"/>
<polygon fill="#63b8ff" stroke="#63b8ff" points="177.3,-96.77 187.87,-96 179.12,-90.01 177.3,-96.77"/>
</a>
</g>
</g>
<!-- Node3 -->
<g id="Node000003" class="node">
<title>Node3</title>
<g id="a_Node000003"><a xlink:href="classgui_1_1PageSign_1_1SignPage.html#aa2dd42151cefd12cb171bceb7418e7b3" target="_top" xlink:title="Validates user input before signing.">
<polygon fill="white" stroke="#666666" points="309,-78 180,-78 180,-48 309,-48 309,-78"/>
<text text-anchor="start" x="188" y="-66" font-family="Helvetica,sans-Serif" font-size="10.00">gui.PageSign.SignPage.</text>
<text text-anchor="middle" x="244.5" y="-55" font-family="Helvetica,sans-Serif" font-size="10.00">_validate_user_entries</text>
</a>
</g>
</g>
<!-- Node1&#45;&gt;Node3 -->
<g id="edge2_Node000001_Node000003" class="edge">
<title>Node1&#45;&gt;Node3</title>
<g id="a_edge2_Node000001_Node000003"><a xlink:title=" ">
<path fill="none" stroke="#63b8ff" d="M129.01,-63C142.14,-63 156.07,-63 169.53,-63"/>
<polygon fill="#63b8ff" stroke="#63b8ff" points="169.72,-66.5 179.72,-63 169.72,-59.5 169.72,-66.5"/>
</a>
</g>
</g>
<!-- Node4 -->
<g id="Node000004" class="node">
<title>Node4</title>
<g id="a_Node000004"><a xlink:href="classgui_1_1PageVerify_1_1VerifyPage.html#a8edb77a4634afaf45ff2006696d0f524" target="_top" xlink:title="Validates user input before verification.">
<polygon fill="white" stroke="#666666" points="315,-30 174,-30 174,0 315,0 315,-30"/>
<text text-anchor="start" x="182" y="-18" font-family="Helvetica,sans-Serif" font-size="10.00">gui.PageVerify.VerifyPage.</text>
<text text-anchor="middle" x="244.5" y="-7" font-family="Helvetica,sans-Serif" font-size="10.00">_validate_user_entries</text>
</a>
</g>
</g>
<!-- Node1&#45;&gt;Node4 -->
<g id="edge3_Node000001_Node000004" class="edge">
<title>Node1&#45;&gt;Node4</title>
<g id="a_edge3_Node000001_Node000004"><a xlink:title=" ">
<path fill="none" stroke="#63b8ff" d="M121.33,-47.94C139.31,-43.1 159.39,-37.68 178,-32.66"/>
<polygon fill="#63b8ff" stroke="#63b8ff" points="179.12,-35.99 187.87,-30 177.3,-29.23 179.12,-35.99"/>
</a>
</g>
</g>
</g>
</svg>
