<?xml version="1.0" encoding="UTF-8" standalone="no"?>
<!DOCTYPE svg PUBLIC "-//W3C//DTD SVG 1.1//EN"
 "http://www.w3.org/Graphics/SVG/1.1/DTD/svg11.dtd">
<!-- Generated by graphviz version 2.43.0 (0)
 -->
<!-- Title: gui.PageSign.SignPage Pages: 1 -->
<svg width="166pt" height="449pt"
 viewBox="0.00 0.00 166.00 449.00" xmlns="http://www.w3.org/2000/svg" xmlns:xlink="http://www.w3.org/1999/xlink">
<g id="graph0" class="graph" transform="scale(1 1) rotate(0) translate(4 445)">
<title>gui.PageSign.SignPage</title>
<!-- Node1 -->
<g id="Node000001" class="node">
<title>Node1</title>
<g id="a_Node000001"><a xlink:title="PDF signing page class.">
<polygon fill="#999999" stroke="transparent" points="158,-356 0,-356 0,0 158,0 158,-356"/>
<text text-anchor="start" x="24" y="-344" font-family="Helvetica,sans-Serif" font-size="10.00">gui.PageSign.SignPage</text>
<text text-anchor="start" x="4" y="-329" font-family="Helvetica,sans-Serif" font-size="10.00">+</text>
<text text-anchor="start" x="17" y="-329" font-family="Helvetica,sans-Serif" font-size="10.00">pdf_filepath</text>
<text text-anchor="start" x="4" y="-314" font-family="Helvetica,sans-Serif" font-size="10.00">+</text>
<text text-anchor="start" x="17" y="-314" font-family="Helvetica,sans-Serif" font-size="10.00">parent_app</text>
<text text-anchor="start" x="4" y="-299" font-family="Helvetica,sans-Serif" font-size="10.00">#</text>
<text text-anchor="start" x="17" y="-299" font-family="Helvetica,sans-Serif" font-size="10.00">_group</text>
<text text-anchor="start" x="4" y="-284" font-family="Helvetica,sans-Serif" font-size="10.00">#</text>
<text text-anchor="start" x="17" y="-284" font-family="Helvetica,sans-Serif" font-size="10.00">_btn_select_pdf</text>
<text text-anchor="start" x="4" y="-269" font-family="Helvetica,sans-Serif" font-size="10.00">#</text>
<text text-anchor="start" x="17" y="-269" font-family="Helvetica,sans-Serif" font-size="10.00">_select_pdf_file</text>
<text text-anchor="start" x="4" y="-254" font-family="Helvetica,sans-Serif" font-size="10.00">#</text>
<text text-anchor="start" x="17" y="-254" font-family="Helvetica,sans-Serif" font-size="10.00">_selected_file_label</text>
<text text-anchor="start" x="4" y="-239" font-family="Helvetica,sans-Serif" font-size="10.00">#</text>
<text text-anchor="start" x="17" y="-239" font-family="Helvetica,sans-Serif" font-size="10.00">_input_sign_pin</text>
<text text-anchor="start" x="4" y="-224" font-family="Helvetica,sans-Serif" font-size="10.00">#</text>
<text text-anchor="start" x="17" y="-224" font-family="Helvetica,sans-Serif" font-size="10.00">_btn_sign</text>
<text text-anchor="start" x="4" y="-209" font-family="Helvetica,sans-Serif" font-size="10.00">#</text>
<text text-anchor="start" x="17" y="-209" font-family="Helvetica,sans-Serif" font-size="10.00">_sign_pdf_file</text>
<text text-anchor="start" x="4" y="-194" font-family="Helvetica,sans-Serif" font-size="10.00">#</text>
<text text-anchor="start" x="17" y="-194" font-family="Helvetica,sans-Serif" font-size="10.00">_progress_dialog</text>
<text text-anchor="start" x="4" y="-179" font-family="Helvetica,sans-Serif" font-size="10.00">#</text>
<text text-anchor="start" x="17" y="-179" font-family="Helvetica,sans-Serif" font-size="10.00">_pdf_worker_thread</text>
<text text-anchor="start" x="4" y="-164" font-family="Helvetica,sans-Serif" font-size="10.00">#</text>
<text text-anchor="start" x="17" y="-164" font-family="Helvetica,sans-Serif" font-size="10.00">_pdf_worker_update</text>
<text text-anchor="start" x="17" y="-153" font-family="Helvetica,sans-Serif" font-size="10.00">_progress</text>
<text text-anchor="start" x="4" y="-138" font-family="Helvetica,sans-Serif" font-size="10.00">#</text>
<text text-anchor="start" x="17" y="-138" font-family="Helvetica,sans-Serif" font-size="10.00">_pdf_worker_task_finished</text>
<text text-anchor="start" x="4" y="-123" font-family="Helvetica,sans-Serif" font-size="10.00">+</text>
<text text-anchor="start" x="17" y="-123" font-family="Helvetica,sans-Serif" font-size="10.00">__init__()</text>
<text text-anchor="start" x="4" y="-108" font-family="Helvetica,sans-Serif" font-size="10.00">+</text>
<text text-anchor="start" x="17" y="-108" font-family="Helvetica,sans-Serif" font-size="10.00">refresh_page()</text>
<text text-anchor="start" x="4" y="-93" font-family="Helvetica,sans-Serif" font-size="10.00">#</text>
<text text-anchor="start" x="17" y="-93" font-family="Helvetica,sans-Serif" font-size="10.00">_init_ui()</text>
<text text-anchor="start" x="4" y="-78" font-family="Helvetica,sans-Serif" font-size="10.00">#</text>
<text text-anchor="start" x="17" y="-78" font-family="Helvetica,sans-Serif" font-size="10.00">_select_pdf_file()</text>
<text text-anchor="start" x="4" y="-63" font-family="Helvetica,sans-Serif" font-size="10.00">#</text>
<text text-anchor="start" x="17" y="-63" font-family="Helvetica,sans-Serif" font-size="10.00">_validate_user_entries()</text>
<text text-anchor="start" x="4" y="-48" font-family="Helvetica,sans-Serif" font-size="10.00">#</text>
<text text-anchor="start" x="17" y="-48" font-family="Helvetica,sans-Serif" font-size="10.00">_sign_pdf_file()</text>
<text text-anchor="start" x="4" y="-33" font-family="Helvetica,sans-Serif" font-size="10.00">#</text>
<text text-anchor="start" x="17" y="-33" font-family="Helvetica,sans-Serif" font-size="10.00">_pdf_worker_update</text>
<text text-anchor="start" x="17" y="-22" font-family="Helvetica,sans-Serif" font-size="10.00">_progress()</text>
<text text-anchor="start" x="4" y="-7" font-family="Helvetica,sans-Serif" font-size="10.00">#</text>
<text text-anchor="start" x="17" y="-7" font-family="Helvetica,sans-Serif" font-size="10.00">_pdf_worker_task_finished()</text>
<polygon fill="#666666" stroke="#666666" points="0,-339 0,-339 158,-339 158,-339 0,-339"/>
<polygon fill="#666666" stroke="#666666" points="0,-133 0,-133 15,-133 15,-133 0,-133"/>
<polygon fill="#666666" stroke="#666666" points="15,-133 15,-133 158,-133 158,-133 15,-133"/>
<polygon fill="none" stroke="#666666" points="0,0 0,-356 158,-356 158,0 0,0"/>
</a>
</g>
</g>
<!-- Node2 -->
<g id="Node000002" class="node">
<title>Node2</title>
<g id="a_Node000002"><a xlink:title=" ">
<polygon fill="white" stroke="transparent" points="105.5,-441 52.5,-441 52.5,-392 105.5,-392 105.5,-441"/>
<text text-anchor="start" x="58" y="-428.5" font-family="Helvetica,sans-Serif" font-size="10.00">QWidget</text>
<text text-anchor="start" x="77.5" y="-413.5" font-family="Helvetica,sans-Serif" font-size="10.00"> </text>
<text text-anchor="start" x="77.5" y="-398.5" font-family="Helvetica,sans-Serif" font-size="10.00"> </text>
<polygon fill="#666666" stroke="#666666" points="53,-423.5 53,-423.5 106,-423.5 106,-423.5 53,-423.5"/>
<polygon fill="#666666" stroke="#666666" points="53,-408.5 53,-408.5 106,-408.5 106,-408.5 53,-408.5"/>
<polygon fill="none" stroke="#666666" points="52.5,-392 52.5,-441 105.5,-441 105.5,-392 52.5,-392"/>
</a>
</g>
</g>
<!-- Node2&#45;&gt;Node1 -->
<g id="edge1_Node000001_Node000002" class="edge">
<title>Node2&#45;&gt;Node1</title>
<g id="a_edge1_Node000001_Node000002"><a xlink:title=" ">
<path fill="none" stroke="#63b8ff" d="M79,-381.79C79,-374.1 79,-365.41 79,-356.07"/>
<polygon fill="none" stroke="#63b8ff" points="75.5,-381.96 79,-391.96 82.5,-381.96 75.5,-381.96"/>
</a>
</g>
</g>
</g>
</svg>
