<?xml version="1.0" encoding="UTF-8" standalone="no"?>
<!DOCTYPE svg PUBLIC "-//W3C//DTD SVG 1.1//EN"
 "http://www.w3.org/Graphics/SVG/1.1/DTD/svg11.dtd">
<!-- Generated by graphviz version 2.43.0 (0)
 -->
<!-- Title: gui.AuxiliaryApp.AuxiliaryApp Pages: 1 -->
<svg width="164pt" height="382pt"
 viewBox="0.00 0.00 164.00 382.00" xmlns="http://www.w3.org/2000/svg" xmlns:xlink="http://www.w3.org/1999/xlink">
<g id="graph0" class="graph" transform="scale(1 1) rotate(0) translate(4 378)">
<title>gui.AuxiliaryApp.AuxiliaryApp</title>
<!-- Node1 -->
<g id="Node000001" class="node">
<title>Node1</title>
<g id="a_Node000001"><a xlink:title="Auxiliary application window class.">
<polygon fill="#999999" stroke="transparent" points="156,-289 0,-289 0,0 156,0 156,-289"/>
<text text-anchor="start" x="5" y="-276.5" font-family="Helvetica,sans-Serif" font-size="10.00">gui.AuxiliaryApp.AuxiliaryApp</text>
<text text-anchor="start" x="9.5" y="-261.5" font-family="Helvetica,sans-Serif" font-size="10.00">+</text>
<text text-anchor="start" x="28" y="-261.5" font-family="Helvetica,sans-Serif" font-size="10.00">public_key_found</text>
<text text-anchor="start" x="9.5" y="-246.5" font-family="Helvetica,sans-Serif" font-size="10.00">+</text>
<text text-anchor="start" x="28" y="-246.5" font-family="Helvetica,sans-Serif" font-size="10.00">public_key_path</text>
<text text-anchor="start" x="9.5" y="-231.5" font-family="Helvetica,sans-Serif" font-size="10.00">+</text>
<text text-anchor="start" x="28" y="-231.5" font-family="Helvetica,sans-Serif" font-size="10.00">usb_path</text>
<text text-anchor="start" x="9.5" y="-216.5" font-family="Helvetica,sans-Serif" font-size="10.00">+</text>
<text text-anchor="start" x="28" y="-216.5" font-family="Helvetica,sans-Serif" font-size="10.00">private_key_found</text>
<text text-anchor="start" x="9.5" y="-201.5" font-family="Helvetica,sans-Serif" font-size="10.00">+</text>
<text text-anchor="start" x="28" y="-201.5" font-family="Helvetica,sans-Serif" font-size="10.00">private_key_path</text>
<text text-anchor="start" x="9.5" y="-186.5" font-family="Helvetica,sans-Serif" font-size="10.00">#</text>
<text text-anchor="start" x="28" y="-186.5" font-family="Helvetica,sans-Serif" font-size="10.00">_main_layout</text>
<text text-anchor="start" x="9.5" y="-171.5" font-family="Helvetica,sans-Serif" font-size="10.00">#</text>
<text text-anchor="start" x="28" y="-171.5" font-family="Helvetica,sans-Serif" font-size="10.00">_side_menu</text>
<text text-anchor="start" x="9.5" y="-156.5" font-family="Helvetica,sans-Serif" font-size="10.00">#</text>
<text text-anchor="start" x="28" y="-156.5" font-family="Helvetica,sans-Serif" font-size="10.00">_content_area</text>
<text text-anchor="start" x="9.5" y="-141.5" font-family="Helvetica,sans-Serif" font-size="10.00">#</text>
<text text-anchor="start" x="28" y="-141.5" font-family="Helvetica,sans-Serif" font-size="10.00">_btn_usb</text>
<text text-anchor="start" x="9.5" y="-126.5" font-family="Helvetica,sans-Serif" font-size="10.00">#</text>
<text text-anchor="start" x="28" y="-126.5" font-family="Helvetica,sans-Serif" font-size="10.00">_page_keygen</text>
<text text-anchor="start" x="9.5" y="-111.5" font-family="Helvetica,sans-Serif" font-size="10.00">#</text>
<text text-anchor="start" x="28" y="-111.5" font-family="Helvetica,sans-Serif" font-size="10.00">_refresh_pages</text>
<text text-anchor="start" x="9.5" y="-96.5" font-family="Helvetica,sans-Serif" font-size="10.00">+</text>
<text text-anchor="start" x="28" y="-96.5" font-family="Helvetica,sans-Serif" font-size="10.00">__init__()</text>
<text text-anchor="start" x="9.5" y="-81.5" font-family="Helvetica,sans-Serif" font-size="10.00">#</text>
<text text-anchor="start" x="28" y="-81.5" font-family="Helvetica,sans-Serif" font-size="10.00">_init_ui()</text>
<text text-anchor="start" x="9.5" y="-66.5" font-family="Helvetica,sans-Serif" font-size="10.00">#</text>
<text text-anchor="start" x="28" y="-66.5" font-family="Helvetica,sans-Serif" font-size="10.00">_update_usb_status()</text>
<text text-anchor="start" x="9.5" y="-51.5" font-family="Helvetica,sans-Serif" font-size="10.00">#</text>
<text text-anchor="start" x="28" y="-51.5" font-family="Helvetica,sans-Serif" font-size="10.00">_refresh_pages()</text>
<text text-anchor="start" x="9.5" y="-36.5" font-family="Helvetica,sans-Serif" font-size="10.00">#</text>
<text text-anchor="start" x="28" y="-36.5" font-family="Helvetica,sans-Serif" font-size="10.00">_load_stylesheet()</text>
<text text-anchor="start" x="9.5" y="-21.5" font-family="Helvetica,sans-Serif" font-size="10.00">#</text>
<text text-anchor="start" x="28" y="-21.5" font-family="Helvetica,sans-Serif" font-size="10.00">_create_side_menu()</text>
<text text-anchor="start" x="9.5" y="-6.5" font-family="Helvetica,sans-Serif" font-size="10.00">#</text>
<text text-anchor="start" x="28" y="-6.5" font-family="Helvetica,sans-Serif" font-size="10.00">_create_content_area()</text>
<polygon fill="#666666" stroke="#666666" points="0,-271.5 0,-271.5 156,-271.5 156,-271.5 0,-271.5"/>
<polygon fill="#666666" stroke="#666666" points="0,-106.5 0,-106.5 26,-106.5 26,-106.5 0,-106.5"/>
<polygon fill="#666666" stroke="#666666" points="26,-106.5 26,-106.5 156,-106.5 156,-106.5 26,-106.5"/>
<polygon fill="none" stroke="#666666" points="0,0 0,-289 156,-289 156,0 0,0"/>
</a>
</g>
</g>
<!-- Node2 -->
<g id="Node000002" class="node">
<title>Node2</title>
<g id="a_Node000002"><a xlink:title=" ">
<polygon fill="white" stroke="transparent" points="104.5,-374 51.5,-374 51.5,-325 104.5,-325 104.5,-374"/>
<text text-anchor="start" x="57" y="-361.5" font-family="Helvetica,sans-Serif" font-size="10.00">QWidget</text>
<text text-anchor="start" x="76.5" y="-346.5" font-family="Helvetica,sans-Serif" font-size="10.00"> </text>
<text text-anchor="start" x="76.5" y="-331.5" font-family="Helvetica,sans-Serif" font-size="10.00"> </text>
<polygon fill="#666666" stroke="#666666" points="52,-356.5 52,-356.5 105,-356.5 105,-356.5 52,-356.5"/>
<polygon fill="#666666" stroke="#666666" points="52,-341.5 52,-341.5 105,-341.5 105,-341.5 52,-341.5"/>
<polygon fill="none" stroke="#666666" points="51.5,-325 51.5,-374 104.5,-374 104.5,-325 51.5,-325"/>
</a>
</g>
</g>
<!-- Node2&#45;&gt;Node1 -->
<g id="edge1_Node000001_Node000002" class="edge">
<title>Node2&#45;&gt;Node1</title>
<g id="a_edge1_Node000001_Node000002"><a xlink:title=" ">
<path fill="none" stroke="#63b8ff" d="M78,-314.66C78,-307 78,-298.4 78,-289.24"/>
<polygon fill="none" stroke="#63b8ff" points="74.5,-314.82 78,-324.82 81.5,-314.82 74.5,-314.82"/>
</a>
</g>
</g>
</g>
</svg>
