<?xml version="1.0" encoding="UTF-8" standalone="no"?>
<!DOCTYPE svg PUBLIC "-//W3C//DTD SVG 1.1//EN"
 "http://www.w3.org/Graphics/SVG/1.1/DTD/svg11.dtd">
<!-- Generated by graphviz version 2.43.0 (0)
 -->
<!-- Title: gui.AuxiliaryApp.AuxiliaryApp._load_stylesheet Pages: 1 -->
<svg width="336pt" height="86pt"
 viewBox="0.00 0.00 336.00 86.00" xmlns="http://www.w3.org/2000/svg" xmlns:xlink="http://www.w3.org/1999/xlink">
<g id="graph0" class="graph" transform="scale(1 1) rotate(0) translate(4 82)">
<title>gui.AuxiliaryApp.AuxiliaryApp._load_stylesheet</title>
<!-- Node1 -->
<g id="Node000001" class="node">
<title>Node1</title>
<g id="a_Node000001"><a xlink:title="Loads the application stylesheet from CSS file.">
<polygon fill="#999999" stroke="#666666" points="328,-54 185,-54 185,-24 328,-24 328,-54"/>
<text text-anchor="start" x="193" y="-42" font-family="Helvetica,sans-Serif" font-size="10.00">gui.AuxiliaryApp.Auxiliary</text>
<text text-anchor="middle" x="256.5" y="-31" font-family="Helvetica,sans-Serif" font-size="10.00">App._load_stylesheet</text>
</a>
</g>
</g>
<!-- Node2 -->
<g id="Node000002" class="node">
<title>Node2</title>
<g id="a_Node000002"><a xlink:href="classgui_1_1AuxiliaryApp_1_1AuxiliaryApp.html#acde95e01fef9d5b4350137ffb06aa464" target="_top" xlink:title="Sets up the user interface.">
<polygon fill="white" stroke="#666666" points="146,-78 3,-78 3,-48 146,-48 146,-78"/>
<text text-anchor="start" x="11" y="-66" font-family="Helvetica,sans-Serif" font-size="10.00">gui.AuxiliaryApp.Auxiliary</text>
<text text-anchor="middle" x="74.5" y="-55" font-family="Helvetica,sans-Serif" font-size="10.00">App._init_ui</text>
</a>
</g>
</g>
<!-- Node1&#45;&gt;Node2 -->
<g id="edge1_Node000001_Node000002" class="edge">
<title>Node1&#45;&gt;Node2</title>
<g id="a_edge1_Node000001_Node000002"><a xlink:title=" ">
<path fill="none" stroke="#63b8ff" d="M174.96,-49.74C165.38,-51.02 155.65,-52.31 146.22,-53.57"/>
<polygon fill="#63b8ff" stroke="#63b8ff" points="175.43,-53.21 184.88,-48.42 174.5,-46.27 175.43,-53.21"/>
</a>
</g>
</g>
<!-- Node3 -->
<g id="Node000003" class="node">
<title>Node3</title>
<g id="a_Node000003"><a xlink:href="classgui_1_1SignatureApp_1_1SignatureApp.html#aae1558e10243dfc609ad7968eff6a6e8" target="_top" xlink:title="Sets up the user interface.">
<polygon fill="white" stroke="#666666" points="149,-30 0,-30 0,0 149,0 149,-30"/>
<text text-anchor="start" x="8" y="-18" font-family="Helvetica,sans-Serif" font-size="10.00">gui.SignatureApp.Signature</text>
<text text-anchor="middle" x="74.5" y="-7" font-family="Helvetica,sans-Serif" font-size="10.00">App._init_ui</text>
</a>
</g>
</g>
<!-- Node1&#45;&gt;Node3 -->
<g id="edge2_Node000001_Node000003" class="edge">
<title>Node1&#45;&gt;Node3</title>
<g id="a_edge2_Node000001_Node000003"><a xlink:title=" ">
<path fill="none" stroke="#63b8ff" d="M174.9,-28.25C166.33,-27.11 157.66,-25.95 149.18,-24.82"/>
<polygon fill="#63b8ff" stroke="#63b8ff" points="174.5,-31.73 184.88,-29.58 175.43,-24.79 174.5,-31.73"/>
</a>
</g>
</g>
</g>
</svg>
