<?xml version="1.0" encoding="UTF-8" standalone="no"?>
<!DOCTYPE svg PUBLIC "-//W3C//DTD SVG 1.1//EN"
 "http://www.w3.org/Graphics/SVG/1.1/DTD/svg11.dtd">
<!-- Generated by graphviz version 2.43.0 (0)
 -->
<!-- Title: gui.AuxiliaryApp.AuxiliaryApp._init_ui Pages: 1 -->
<svg width="521pt" height="278pt"
 viewBox="0.00 0.00 521.00 278.00" xmlns="http://www.w3.org/2000/svg" xmlns:xlink="http://www.w3.org/1999/xlink">
<g id="graph0" class="graph" transform="scale(1 1) rotate(0) translate(4 274)">
<title>gui.AuxiliaryApp.AuxiliaryApp._init_ui</title>
<!-- Node1 -->
<g id="Node000001" class="node">
<title>Node1</title>
<g id="a_Node000001"><a xlink:title="Sets up the user interface.">
<polygon fill="#999999" stroke="#666666" points="143,-150 0,-150 0,-120 143,-120 143,-150"/>
<text text-anchor="start" x="8" y="-138" font-family="Helvetica,sans-Serif" font-size="10.00">gui.AuxiliaryApp.Auxiliary</text>
<text text-anchor="middle" x="71.5" y="-127" font-family="Helvetica,sans-Serif" font-size="10.00">App._init_ui</text>
</a>
</g>
</g>
<!-- Node2 -->
<g id="Node000002" class="node">
<title>Node2</title>
<g id="a_Node000002"><a xlink:href="classgui_1_1AuxiliaryApp_1_1AuxiliaryApp.html#a2a483b85085e5c49441bed70c42f1876" target="_top" xlink:title="Creates the content area with all pages.">
<polygon fill="white" stroke="#666666" points="325,-270 182,-270 182,-240 325,-240 325,-270"/>
<text text-anchor="start" x="190" y="-258" font-family="Helvetica,sans-Serif" font-size="10.00">gui.AuxiliaryApp.Auxiliary</text>
<text text-anchor="middle" x="253.5" y="-247" font-family="Helvetica,sans-Serif" font-size="10.00">App._create_content_area</text>
</a>
</g>
</g>
<!-- Node1&#45;&gt;Node2 -->
<g id="edge1_Node000001_Node000002" class="edge">
<title>Node1&#45;&gt;Node2</title>
<g id="a_edge1_Node000001_Node000002"><a xlink:title=" ">
<path fill="none" stroke="#63b8ff" d="M85.46,-150.12C104.14,-171.06 140.65,-208.81 179,-231 182,-232.73 185.13,-234.36 188.35,-235.89"/>
<polygon fill="#63b8ff" stroke="#63b8ff" points="187.04,-239.13 197.6,-239.92 189.83,-232.71 187.04,-239.13"/>
</a>
</g>
</g>
<!-- Node3 -->
<g id="Node000003" class="node">
<title>Node3</title>
<g id="a_Node000003"><a xlink:href="classgui_1_1SignatureApp_1_1SignatureApp.html#a33e33c901f8ba992a917c8a3cff0f48f" target="_top" xlink:title="Creates the content area with all pages.">
<polygon fill="white" stroke="#666666" points="328,-222 179,-222 179,-192 328,-192 328,-222"/>
<text text-anchor="start" x="187" y="-210" font-family="Helvetica,sans-Serif" font-size="10.00">gui.SignatureApp.Signature</text>
<text text-anchor="middle" x="253.5" y="-199" font-family="Helvetica,sans-Serif" font-size="10.00">App._create_content_area</text>
</a>
</g>
</g>
<!-- Node1&#45;&gt;Node3 -->
<g id="edge2_Node000001_Node000003" class="edge">
<title>Node1&#45;&gt;Node3</title>
<g id="a_edge2_Node000001_Node000003"><a xlink:title=" ">
<path fill="none" stroke="#63b8ff" d="M103.81,-150.19C124.83,-160.11 153.28,-173.04 179,-183 184.01,-184.94 189.24,-186.86 194.52,-188.72"/>
<polygon fill="#63b8ff" stroke="#63b8ff" points="193.41,-192.04 204,-191.99 195.69,-185.42 193.41,-192.04"/>
</a>
</g>
</g>
<!-- Node5 -->
<g id="Node000005" class="node">
<title>Node5</title>
<g id="a_Node000005"><a xlink:href="classgui_1_1AuxiliaryApp_1_1AuxiliaryApp.html#a9b908244ca043cf125b9f023ca8a1907" target="_top" xlink:title="Creates the side navigation menu.">
<polygon fill="white" stroke="#666666" points="325,-174 182,-174 182,-144 325,-144 325,-174"/>
<text text-anchor="start" x="190" y="-162" font-family="Helvetica,sans-Serif" font-size="10.00">gui.AuxiliaryApp.Auxiliary</text>
<text text-anchor="middle" x="253.5" y="-151" font-family="Helvetica,sans-Serif" font-size="10.00">App._create_side_menu</text>
</a>
</g>
</g>
<!-- Node1&#45;&gt;Node5 -->
<g id="edge4_Node000001_Node000005" class="edge">
<title>Node1&#45;&gt;Node5</title>
<g id="a_edge4_Node000001_Node000005"><a xlink:title=" ">
<path fill="none" stroke="#63b8ff" d="M143.12,-144.42C152.55,-145.67 162.28,-146.97 171.87,-148.25"/>
<polygon fill="#63b8ff" stroke="#63b8ff" points="171.41,-151.72 181.78,-149.57 172.33,-144.78 171.41,-151.72"/>
</a>
</g>
</g>
<!-- Node6 -->
<g id="Node000006" class="node">
<title>Node6</title>
<g id="a_Node000006"><a xlink:href="classgui_1_1SignatureApp_1_1SignatureApp.html#af2d05d73902e7d75d029b4d750aced90" target="_top" xlink:title="Creates the side navigation menu.">
<polygon fill="white" stroke="#666666" points="328,-126 179,-126 179,-96 328,-96 328,-126"/>
<text text-anchor="start" x="187" y="-114" font-family="Helvetica,sans-Serif" font-size="10.00">gui.SignatureApp.Signature</text>
<text text-anchor="middle" x="253.5" y="-103" font-family="Helvetica,sans-Serif" font-size="10.00">App._create_side_menu</text>
</a>
</g>
</g>
<!-- Node1&#45;&gt;Node6 -->
<g id="edge5_Node000001_Node000006" class="edge">
<title>Node1&#45;&gt;Node6</title>
<g id="a_edge5_Node000001_Node000006"><a xlink:title=" ">
<path fill="none" stroke="#63b8ff" d="M143.12,-125.58C151.55,-124.46 160.21,-123.31 168.8,-122.16"/>
<polygon fill="#63b8ff" stroke="#63b8ff" points="169.37,-125.62 178.82,-120.82 168.44,-118.68 169.37,-125.62"/>
</a>
</g>
</g>
<!-- Node7 -->
<g id="Node000007" class="node">
<title>Node7</title>
<g id="a_Node000007"><a xlink:href="classgui_1_1AuxiliaryApp_1_1AuxiliaryApp.html#aeeba936f77693f06dd008ce9321e9fec" target="_top" xlink:title="Loads the application stylesheet from CSS file.">
<polygon fill="white" stroke="#666666" points="325,-78 182,-78 182,-48 325,-48 325,-78"/>
<text text-anchor="start" x="190" y="-66" font-family="Helvetica,sans-Serif" font-size="10.00">gui.AuxiliaryApp.Auxiliary</text>
<text text-anchor="middle" x="253.5" y="-55" font-family="Helvetica,sans-Serif" font-size="10.00">App._load_stylesheet</text>
</a>
</g>
</g>
<!-- Node1&#45;&gt;Node7 -->
<g id="edge6_Node000001_Node000007" class="edge">
<title>Node1&#45;&gt;Node7</title>
<g id="a_edge6_Node000001_Node000007"><a xlink:title=" ">
<path fill="none" stroke="#63b8ff" d="M103.81,-119.81C124.83,-109.89 153.28,-96.96 179,-87 184.01,-85.06 189.24,-83.14 194.52,-81.28"/>
<polygon fill="#63b8ff" stroke="#63b8ff" points="195.69,-84.58 204,-78.01 193.41,-77.96 195.69,-84.58"/>
</a>
</g>
</g>
<!-- Node8 -->
<g id="Node000008" class="node">
<title>Node8</title>
<g id="a_Node000008"><a xlink:href="classgui_1_1SignatureApp_1_1SignatureApp.html#a02a03b3803e553ce31c305ce03c57c0d" target="_top" xlink:title="Loads the application stylesheet from CSS file.">
<polygon fill="white" stroke="#666666" points="328,-30 179,-30 179,0 328,0 328,-30"/>
<text text-anchor="start" x="187" y="-18" font-family="Helvetica,sans-Serif" font-size="10.00">gui.SignatureApp.Signature</text>
<text text-anchor="middle" x="253.5" y="-7" font-family="Helvetica,sans-Serif" font-size="10.00">App._load_stylesheet</text>
</a>
</g>
</g>
<!-- Node1&#45;&gt;Node8 -->
<g id="edge7_Node000001_Node000008" class="edge">
<title>Node1&#45;&gt;Node8</title>
<g id="a_edge7_Node000001_Node000008"><a xlink:title=" ">
<path fill="none" stroke="#63b8ff" d="M85.46,-119.88C104.14,-98.94 140.65,-61.19 179,-39 182,-37.27 185.13,-35.64 188.35,-34.11"/>
<polygon fill="#63b8ff" stroke="#63b8ff" points="189.83,-37.29 197.6,-30.08 187.04,-30.87 189.83,-37.29"/>
</a>
</g>
</g>
<!-- Node4 -->
<g id="Node000004" class="node">
<title>Node4</title>
<g id="a_Node000004"><a xlink:href="classgui_1_1SignatureApp_1_1SignatureApp.html#ade66c4b829fed9ce83fabe6ce64cfc52" target="_top" xlink:title="Switches to the specified page.">
<polygon fill="white" stroke="#666666" points="513,-222 364,-222 364,-192 513,-192 513,-222"/>
<text text-anchor="start" x="372" y="-210" font-family="Helvetica,sans-Serif" font-size="10.00">gui.SignatureApp.Signature</text>
<text text-anchor="middle" x="438.5" y="-199" font-family="Helvetica,sans-Serif" font-size="10.00">App._switch_page</text>
</a>
</g>
</g>
<!-- Node3&#45;&gt;Node4 -->
<g id="edge3_Node000003_Node000004" class="edge">
<title>Node3&#45;&gt;Node4</title>
<g id="a_edge3_Node000003_Node000004"><a xlink:title=" ">
<path fill="none" stroke="#63b8ff" d="M328.14,-207C336.47,-207 345.01,-207 353.46,-207"/>
<polygon fill="#63b8ff" stroke="#63b8ff" points="353.71,-210.5 363.71,-207 353.71,-203.5 353.71,-210.5"/>
</a>
</g>
</g>
</g>
</svg>
