<?xml version="1.0" encoding="UTF-8" standalone="no"?>
<!DOCTYPE svg PUBLIC "-//W3C//DTD SVG 1.1//EN"
 "http://www.w3.org/Graphics/SVG/1.1/DTD/svg11.dtd">
<!-- Generated by graphviz version 2.43.0 (0)
 -->
<!-- Title: gui.SignatureApp.SignatureApp Pages: 1 -->
<svg width="170pt" height="457pt"
 viewBox="0.00 0.00 170.00 457.00" xmlns="http://www.w3.org/2000/svg" xmlns:xlink="http://www.w3.org/1999/xlink">
<g id="graph0" class="graph" transform="scale(1 1) rotate(0) translate(4 453)">
<title>gui.SignatureApp.SignatureApp</title>
<!-- Node1 -->
<g id="Node000001" class="node">
<title>Node1</title>
<g id="a_Node000001"><a xlink:title="Signature application window class.">
<polygon fill="#999999" stroke="transparent" points="162,-364 0,-364 0,0 162,0 162,-364"/>
<text text-anchor="start" x="5" y="-352" font-family="Helvetica,sans-Serif" font-size="10.00">gui.SignatureApp.SignatureApp</text>
<text text-anchor="start" x="11" y="-337" font-family="Helvetica,sans-Serif" font-size="10.00">+</text>
<text text-anchor="start" x="31" y="-337" font-family="Helvetica,sans-Serif" font-size="10.00">public_key_found</text>
<text text-anchor="start" x="11" y="-322" font-family="Helvetica,sans-Serif" font-size="10.00">+</text>
<text text-anchor="start" x="31" y="-322" font-family="Helvetica,sans-Serif" font-size="10.00">public_key_path</text>
<text text-anchor="start" x="11" y="-307" font-family="Helvetica,sans-Serif" font-size="10.00">+</text>
<text text-anchor="start" x="31" y="-307" font-family="Helvetica,sans-Serif" font-size="10.00">usb_path</text>
<text text-anchor="start" x="11" y="-292" font-family="Helvetica,sans-Serif" font-size="10.00">+</text>
<text text-anchor="start" x="31" y="-292" font-family="Helvetica,sans-Serif" font-size="10.00">private_key_found</text>
<text text-anchor="start" x="11" y="-277" font-family="Helvetica,sans-Serif" font-size="10.00">+</text>
<text text-anchor="start" x="31" y="-277" font-family="Helvetica,sans-Serif" font-size="10.00">private_key_path</text>
<text text-anchor="start" x="11" y="-262" font-family="Helvetica,sans-Serif" font-size="10.00">#</text>
<text text-anchor="start" x="31" y="-262" font-family="Helvetica,sans-Serif" font-size="10.00">_main_layout</text>
<text text-anchor="start" x="11" y="-247" font-family="Helvetica,sans-Serif" font-size="10.00">#</text>
<text text-anchor="start" x="31" y="-247" font-family="Helvetica,sans-Serif" font-size="10.00">_side_menu</text>
<text text-anchor="start" x="11" y="-232" font-family="Helvetica,sans-Serif" font-size="10.00">#</text>
<text text-anchor="start" x="31" y="-232" font-family="Helvetica,sans-Serif" font-size="10.00">_content_area</text>
<text text-anchor="start" x="11" y="-217" font-family="Helvetica,sans-Serif" font-size="10.00">#</text>
<text text-anchor="start" x="31" y="-217" font-family="Helvetica,sans-Serif" font-size="10.00">_btn_usb</text>
<text text-anchor="start" x="11" y="-202" font-family="Helvetica,sans-Serif" font-size="10.00">#</text>
<text text-anchor="start" x="31" y="-202" font-family="Helvetica,sans-Serif" font-size="10.00">_btn_verify</text>
<text text-anchor="start" x="11" y="-187" font-family="Helvetica,sans-Serif" font-size="10.00">#</text>
<text text-anchor="start" x="31" y="-187" font-family="Helvetica,sans-Serif" font-size="10.00">_btn_sign</text>
<text text-anchor="start" x="11" y="-172" font-family="Helvetica,sans-Serif" font-size="10.00">#</text>
<text text-anchor="start" x="31" y="-172" font-family="Helvetica,sans-Serif" font-size="10.00">_btn_keygen</text>
<text text-anchor="start" x="11" y="-157" font-family="Helvetica,sans-Serif" font-size="10.00">#</text>
<text text-anchor="start" x="31" y="-157" font-family="Helvetica,sans-Serif" font-size="10.00">_page_verify</text>
<text text-anchor="start" x="11" y="-142" font-family="Helvetica,sans-Serif" font-size="10.00">#</text>
<text text-anchor="start" x="31" y="-142" font-family="Helvetica,sans-Serif" font-size="10.00">_page_sign</text>
<text text-anchor="start" x="11" y="-127" font-family="Helvetica,sans-Serif" font-size="10.00">#</text>
<text text-anchor="start" x="31" y="-127" font-family="Helvetica,sans-Serif" font-size="10.00">_refresh_pages</text>
<text text-anchor="start" x="11" y="-112" font-family="Helvetica,sans-Serif" font-size="10.00">+</text>
<text text-anchor="start" x="31" y="-112" font-family="Helvetica,sans-Serif" font-size="10.00">__init__()</text>
<text text-anchor="start" x="11" y="-97" font-family="Helvetica,sans-Serif" font-size="10.00">#</text>
<text text-anchor="start" x="31" y="-97" font-family="Helvetica,sans-Serif" font-size="10.00">_init_ui()</text>
<text text-anchor="start" x="11" y="-82" font-family="Helvetica,sans-Serif" font-size="10.00">#</text>
<text text-anchor="start" x="31" y="-82" font-family="Helvetica,sans-Serif" font-size="10.00">_switch_page()</text>
<text text-anchor="start" x="11" y="-67" font-family="Helvetica,sans-Serif" font-size="10.00">#</text>
<text text-anchor="start" x="31" y="-67" font-family="Helvetica,sans-Serif" font-size="10.00">_update_usb_status()</text>
<text text-anchor="start" x="11" y="-52" font-family="Helvetica,sans-Serif" font-size="10.00">#</text>
<text text-anchor="start" x="31" y="-52" font-family="Helvetica,sans-Serif" font-size="10.00">_refresh_pages()</text>
<text text-anchor="start" x="11" y="-37" font-family="Helvetica,sans-Serif" font-size="10.00">#</text>
<text text-anchor="start" x="31" y="-37" font-family="Helvetica,sans-Serif" font-size="10.00">_load_stylesheet()</text>
<text text-anchor="start" x="11" y="-22" font-family="Helvetica,sans-Serif" font-size="10.00">#</text>
<text text-anchor="start" x="31" y="-22" font-family="Helvetica,sans-Serif" font-size="10.00">_create_side_menu()</text>
<text text-anchor="start" x="11" y="-7" font-family="Helvetica,sans-Serif" font-size="10.00">#</text>
<text text-anchor="start" x="31" y="-7" font-family="Helvetica,sans-Serif" font-size="10.00">_create_content_area()</text>
<polygon fill="#666666" stroke="#666666" points="0,-347 0,-347 162,-347 162,-347 0,-347"/>
<polygon fill="#666666" stroke="#666666" points="0,-122 0,-122 29,-122 29,-122 0,-122"/>
<polygon fill="#666666" stroke="#666666" points="29,-122 29,-122 162,-122 162,-122 29,-122"/>
<polygon fill="none" stroke="#666666" points="0,0 0,-364 162,-364 162,0 0,0"/>
</a>
</g>
</g>
<!-- Node2 -->
<g id="Node000002" class="node">
<title>Node2</title>
<g id="a_Node000002"><a xlink:title=" ">
<polygon fill="white" stroke="transparent" points="107.5,-449 54.5,-449 54.5,-400 107.5,-400 107.5,-449"/>
<text text-anchor="start" x="60" y="-436.5" font-family="Helvetica,sans-Serif" font-size="10.00">QWidget</text>
<text text-anchor="start" x="79.5" y="-421.5" font-family="Helvetica,sans-Serif" font-size="10.00"> </text>
<text text-anchor="start" x="79.5" y="-406.5" font-family="Helvetica,sans-Serif" font-size="10.00"> </text>
<polygon fill="#666666" stroke="#666666" points="55,-431.5 55,-431.5 108,-431.5 108,-431.5 55,-431.5"/>
<polygon fill="#666666" stroke="#666666" points="55,-416.5 55,-416.5 108,-416.5 108,-416.5 55,-416.5"/>
<polygon fill="none" stroke="#666666" points="54.5,-400 54.5,-449 107.5,-449 107.5,-400 54.5,-400"/>
</a>
</g>
</g>
<!-- Node2&#45;&gt;Node1 -->
<g id="edge1_Node000001_Node000002" class="edge">
<title>Node2&#45;&gt;Node1</title>
<g id="a_edge1_Node000001_Node000002"><a xlink:title=" ">
<path fill="none" stroke="#63b8ff" d="M81,-389.48C81,-381.87 81,-373.29 81,-364.06"/>
<polygon fill="none" stroke="#63b8ff" points="77.5,-389.56 81,-399.56 84.5,-389.56 77.5,-389.56"/>
</a>
</g>
</g>
</g>
</svg>
