<?xml version="1.0" encoding="UTF-8" standalone="no"?>
<!DOCTYPE svg PUBLIC "-//W3C//DTD SVG 1.1//EN"
 "http://www.w3.org/Graphics/SVG/1.1/DTD/svg11.dtd">
<!-- Generated by graphviz version 2.43.0 (0)
 -->
<!-- Title: gui.SignatureApp.SignatureApp._init_ui Pages: 1 -->
<svg width="527pt" height="134pt"
 viewBox="0.00 0.00 527.00 134.00" xmlns="http://www.w3.org/2000/svg" xmlns:xlink="http://www.w3.org/1999/xlink">
<g id="graph0" class="graph" transform="scale(1 1) rotate(0) translate(4 130)">
<title>gui.SignatureApp.SignatureApp._init_ui</title>
<!-- Node1 -->
<g id="Node000001" class="node">
<title>Node1</title>
<g id="a_Node000001"><a xlink:title="Sets up the user interface.">
<polygon fill="#999999" stroke="#666666" points="149,-78 0,-78 0,-48 149,-48 149,-78"/>
<text text-anchor="start" x="8" y="-66" font-family="Helvetica,sans-Serif" font-size="10.00">gui.SignatureApp.Signature</text>
<text text-anchor="middle" x="74.5" y="-55" font-family="Helvetica,sans-Serif" font-size="10.00">App._init_ui</text>
</a>
</g>
</g>
<!-- Node2 -->
<g id="Node000002" class="node">
<title>Node2</title>
<g id="a_Node000002"><a xlink:href="classgui_1_1SignatureApp_1_1SignatureApp.html#a33e33c901f8ba992a917c8a3cff0f48f" target="_top" xlink:title="Creates the content area with all pages.">
<polygon fill="white" stroke="#666666" points="334,-126 185,-126 185,-96 334,-96 334,-126"/>
<text text-anchor="start" x="193" y="-114" font-family="Helvetica,sans-Serif" font-size="10.00">gui.SignatureApp.Signature</text>
<text text-anchor="middle" x="259.5" y="-103" font-family="Helvetica,sans-Serif" font-size="10.00">App._create_content_area</text>
</a>
</g>
</g>
<!-- Node1&#45;&gt;Node2 -->
<g id="edge1_Node000001_Node000002" class="edge">
<title>Node1&#45;&gt;Node2</title>
<g id="a_edge1_Node000001_Node000002"><a xlink:title=" ">
<path fill="none" stroke="#63b8ff" d="M132.9,-78.06C151.47,-82.93 172.22,-88.37 191.42,-93.41"/>
<polygon fill="#63b8ff" stroke="#63b8ff" points="190.74,-96.85 201.3,-96 192.52,-90.07 190.74,-96.85"/>
</a>
</g>
</g>
<!-- Node4 -->
<g id="Node000004" class="node">
<title>Node4</title>
<g id="a_Node000004"><a xlink:href="classgui_1_1SignatureApp_1_1SignatureApp.html#af2d05d73902e7d75d029b4d750aced90" target="_top" xlink:title="Creates the side navigation menu.">
<polygon fill="white" stroke="#666666" points="334,-78 185,-78 185,-48 334,-48 334,-78"/>
<text text-anchor="start" x="193" y="-66" font-family="Helvetica,sans-Serif" font-size="10.00">gui.SignatureApp.Signature</text>
<text text-anchor="middle" x="259.5" y="-55" font-family="Helvetica,sans-Serif" font-size="10.00">App._create_side_menu</text>
</a>
</g>
</g>
<!-- Node1&#45;&gt;Node4 -->
<g id="edge3_Node000001_Node000004" class="edge">
<title>Node1&#45;&gt;Node4</title>
<g id="a_edge3_Node000001_Node000004"><a xlink:title=" ">
<path fill="none" stroke="#63b8ff" d="M149.14,-63C157.47,-63 166.01,-63 174.46,-63"/>
<polygon fill="#63b8ff" stroke="#63b8ff" points="174.71,-66.5 184.71,-63 174.71,-59.5 174.71,-66.5"/>
</a>
</g>
</g>
<!-- Node5 -->
<g id="Node000005" class="node">
<title>Node5</title>
<g id="a_Node000005"><a xlink:href="classgui_1_1SignatureApp_1_1SignatureApp.html#a02a03b3803e553ce31c305ce03c57c0d" target="_top" xlink:title="Loads the application stylesheet from CSS file.">
<polygon fill="white" stroke="#666666" points="334,-30 185,-30 185,0 334,0 334,-30"/>
<text text-anchor="start" x="193" y="-18" font-family="Helvetica,sans-Serif" font-size="10.00">gui.SignatureApp.Signature</text>
<text text-anchor="middle" x="259.5" y="-7" font-family="Helvetica,sans-Serif" font-size="10.00">App._load_stylesheet</text>
</a>
</g>
</g>
<!-- Node1&#45;&gt;Node5 -->
<g id="edge4_Node000001_Node000005" class="edge">
<title>Node1&#45;&gt;Node5</title>
<g id="a_edge4_Node000001_Node000005"><a xlink:title=" ">
<path fill="none" stroke="#63b8ff" d="M132.9,-47.94C151.47,-43.07 172.22,-37.63 191.42,-32.59"/>
<polygon fill="#63b8ff" stroke="#63b8ff" points="192.52,-35.93 201.3,-30 190.74,-29.15 192.52,-35.93"/>
</a>
</g>
</g>
<!-- Node3 -->
<g id="Node000003" class="node">
<title>Node3</title>
<g id="a_Node000003"><a xlink:href="classgui_1_1SignatureApp_1_1SignatureApp.html#ade66c4b829fed9ce83fabe6ce64cfc52" target="_top" xlink:title="Switches to the specified page.">
<polygon fill="white" stroke="#666666" points="519,-126 370,-126 370,-96 519,-96 519,-126"/>
<text text-anchor="start" x="378" y="-114" font-family="Helvetica,sans-Serif" font-size="10.00">gui.SignatureApp.Signature</text>
<text text-anchor="middle" x="444.5" y="-103" font-family="Helvetica,sans-Serif" font-size="10.00">App._switch_page</text>
</a>
</g>
</g>
<!-- Node2&#45;&gt;Node3 -->
<g id="edge2_Node000002_Node000003" class="edge">
<title>Node2&#45;&gt;Node3</title>
<g id="a_edge2_Node000002_Node000003"><a xlink:title=" ">
<path fill="none" stroke="#63b8ff" d="M334.14,-111C342.47,-111 351.01,-111 359.46,-111"/>
<polygon fill="#63b8ff" stroke="#63b8ff" points="359.71,-114.5 369.71,-111 359.71,-107.5 359.71,-114.5"/>
</a>
</g>
</g>
</g>
</svg>
