<?xml version="1.0" encoding="UTF-8" standalone="no"?>
<!DOCTYPE svg PUBLIC "-//W3C//DTD SVG 1.1//EN"
 "http://www.w3.org/Graphics/SVG/1.1/DTD/svg11.dtd">
<!-- Generated by graphviz version 2.43.0 (0)
 -->
<!-- Title: gui.AuxiliaryApp.AuxiliaryApp._refresh_pages Pages: 1 -->
<svg width="336pt" height="86pt"
 viewBox="0.00 0.00 336.00 86.00" xmlns="http://www.w3.org/2000/svg" xmlns:xlink="http://www.w3.org/1999/xlink">
<g id="graph0" class="graph" transform="scale(1 1) rotate(0) translate(4 82)">
<title>gui.AuxiliaryApp.AuxiliaryApp._refresh_pages</title>
<!-- Node1 -->
<g id="Node000001" class="node">
<title>Node1</title>
<g id="a_Node000001"><a xlink:title="Refreshes all pages status periodically.">
<polygon fill="#999999" stroke="#666666" points="143,-54 0,-54 0,-24 143,-24 143,-54"/>
<text text-anchor="start" x="8" y="-42" font-family="Helvetica,sans-Serif" font-size="10.00">gui.AuxiliaryApp.Auxiliary</text>
<text text-anchor="middle" x="71.5" y="-31" font-family="Helvetica,sans-Serif" font-size="10.00">App._refresh_pages</text>
</a>
</g>
</g>
<!-- Node2 -->
<g id="Node000002" class="node">
<title>Node2</title>
<g id="a_Node000002"><a xlink:href="classgui_1_1AuxiliaryApp_1_1AuxiliaryApp.html#ad7f116fa610f628b06926889a2cb2307" target="_top" xlink:title="Checks USB status and updates the UI.">
<polygon fill="white" stroke="#666666" points="325,-78 182,-78 182,-48 325,-48 325,-78"/>
<text text-anchor="start" x="190" y="-66" font-family="Helvetica,sans-Serif" font-size="10.00">gui.AuxiliaryApp.Auxiliary</text>
<text text-anchor="middle" x="253.5" y="-55" font-family="Helvetica,sans-Serif" font-size="10.00">App._update_usb_status</text>
</a>
</g>
</g>
<!-- Node1&#45;&gt;Node2 -->
<g id="edge1_Node000001_Node000002" class="edge">
<title>Node1&#45;&gt;Node2</title>
<g id="a_edge1_Node000001_Node000002"><a xlink:title=" ">
<path fill="none" stroke="#63b8ff" d="M143.12,-48.42C152.55,-49.67 162.28,-50.97 171.87,-52.25"/>
<polygon fill="#63b8ff" stroke="#63b8ff" points="171.41,-55.72 181.78,-53.57 172.33,-48.78 171.41,-55.72"/>
</a>
</g>
</g>
<!-- Node3 -->
<g id="Node000003" class="node">
<title>Node3</title>
<g id="a_Node000003"><a xlink:href="classgui_1_1SignatureApp_1_1SignatureApp.html#a8282a91a15ec784798a9e656b048b788" target="_top" xlink:title="Checks USB status and updates the UI.">
<polygon fill="white" stroke="#666666" points="328,-30 179,-30 179,0 328,0 328,-30"/>
<text text-anchor="start" x="187" y="-18" font-family="Helvetica,sans-Serif" font-size="10.00">gui.SignatureApp.Signature</text>
<text text-anchor="middle" x="253.5" y="-7" font-family="Helvetica,sans-Serif" font-size="10.00">App._update_usb_status</text>
</a>
</g>
</g>
<!-- Node1&#45;&gt;Node3 -->
<g id="edge2_Node000001_Node000003" class="edge">
<title>Node1&#45;&gt;Node3</title>
<g id="a_edge2_Node000001_Node000003"><a xlink:title=" ">
<path fill="none" stroke="#63b8ff" d="M143.12,-29.58C151.55,-28.46 160.21,-27.31 168.8,-26.16"/>
<polygon fill="#63b8ff" stroke="#63b8ff" points="169.37,-29.62 178.82,-24.82 168.44,-22.68 169.37,-29.62"/>
</a>
</g>
</g>
</g>
</svg>
