<?xml version="1.0" encoding="UTF-8" standalone="no"?>
<!DOCTYPE svg PUBLIC "-//W3C//DTD SVG 1.1//EN"
 "http://www.w3.org/Graphics/SVG/1.1/DTD/svg11.dtd">
<!-- Generated by graphviz version 2.43.0 (0)
 -->
<!-- Title: gui.PageVerify.VerifyPage._verify_pdf_file Pages: 1 -->
<svg width="344pt" height="134pt"
 viewBox="0.00 0.00 344.00 134.00" xmlns="http://www.w3.org/2000/svg" xmlns:xlink="http://www.w3.org/1999/xlink">
<g id="graph0" class="graph" transform="scale(1 1) rotate(0) translate(4 130)">
<title>gui.PageVerify.VerifyPage._verify_pdf_file</title>
<!-- Node1 -->
<g id="Node000001" class="node">
<title>Node1</title>
<g id="a_Node000001"><a xlink:title="Initiates the PDF signature verification process.">
<polygon fill="#999999" stroke="#666666" points="141,-78 0,-78 0,-48 141,-48 141,-78"/>
<text text-anchor="start" x="8" y="-66" font-family="Helvetica,sans-Serif" font-size="10.00">gui.PageVerify.VerifyPage.</text>
<text text-anchor="middle" x="70.5" y="-55" font-family="Helvetica,sans-Serif" font-size="10.00">_verify_pdf_file</text>
</a>
</g>
</g>
<!-- Node2 -->
<g id="Node000002" class="node">
<title>Node2</title>
<g id="a_Node000002"><a xlink:href="classgui_1_1PageKeygen_1_1KeygenPage.html#ab275367be11b21c44c69d669a4ada5f3" target="_top" xlink:title="Validates user input before key generation.">
<polygon fill="white" stroke="#666666" points="336,-126 177,-126 177,-96 336,-96 336,-126"/>
<text text-anchor="start" x="185" y="-114" font-family="Helvetica,sans-Serif" font-size="10.00">gui.PageKeygen.KeygenPage.</text>
<text text-anchor="middle" x="256.5" y="-103" font-family="Helvetica,sans-Serif" font-size="10.00">_validate_user_entries</text>
</a>
</g>
</g>
<!-- Node1&#45;&gt;Node2 -->
<g id="edge1_Node000001_Node000002" class="edge">
<title>Node1&#45;&gt;Node2</title>
<g id="a_edge1_Node000001_Node000002"><a xlink:title=" ">
<path fill="none" stroke="#63b8ff" d="M129.21,-78.06C147.88,-82.93 168.75,-88.37 188.06,-93.41"/>
<polygon fill="#63b8ff" stroke="#63b8ff" points="187.43,-96.86 197.99,-96 189.2,-90.09 187.43,-96.86"/>
</a>
</g>
</g>
<!-- Node3 -->
<g id="Node000003" class="node">
<title>Node3</title>
<g id="a_Node000003"><a xlink:href="classgui_1_1PageSign_1_1SignPage.html#aa2dd42151cefd12cb171bceb7418e7b3" target="_top" xlink:title="Validates user input before signing.">
<polygon fill="white" stroke="#666666" points="321,-78 192,-78 192,-48 321,-48 321,-78"/>
<text text-anchor="start" x="200" y="-66" font-family="Helvetica,sans-Serif" font-size="10.00">gui.PageSign.SignPage.</text>
<text text-anchor="middle" x="256.5" y="-55" font-family="Helvetica,sans-Serif" font-size="10.00">_validate_user_entries</text>
</a>
</g>
</g>
<!-- Node1&#45;&gt;Node3 -->
<g id="edge2_Node000001_Node000003" class="edge">
<title>Node1&#45;&gt;Node3</title>
<g id="a_edge2_Node000001_Node000003"><a xlink:title=" ">
<path fill="none" stroke="#63b8ff" d="M141.06,-63C154.36,-63 168.33,-63 181.75,-63"/>
<polygon fill="#63b8ff" stroke="#63b8ff" points="181.9,-66.5 191.9,-63 181.9,-59.5 181.9,-66.5"/>
</a>
</g>
</g>
<!-- Node4 -->
<g id="Node000004" class="node">
<title>Node4</title>
<g id="a_Node000004"><a xlink:href="classgui_1_1PageVerify_1_1VerifyPage.html#a8edb77a4634afaf45ff2006696d0f524" target="_top" xlink:title="Validates user input before verification.">
<polygon fill="white" stroke="#666666" points="327,-30 186,-30 186,0 327,0 327,-30"/>
<text text-anchor="start" x="194" y="-18" font-family="Helvetica,sans-Serif" font-size="10.00">gui.PageVerify.VerifyPage.</text>
<text text-anchor="middle" x="256.5" y="-7" font-family="Helvetica,sans-Serif" font-size="10.00">_validate_user_entries</text>
</a>
</g>
</g>
<!-- Node1&#45;&gt;Node4 -->
<g id="edge3_Node000001_Node000004" class="edge">
<title>Node1&#45;&gt;Node4</title>
<g id="a_edge3_Node000001_Node000004"><a xlink:title=" ">
<path fill="none" stroke="#63b8ff" d="M129.21,-47.94C147.88,-43.07 168.75,-37.63 188.06,-32.59"/>
<polygon fill="#63b8ff" stroke="#63b8ff" points="189.2,-35.91 197.99,-30 187.43,-29.14 189.2,-35.91"/>
</a>
</g>
</g>
</g>
</svg>
