<?xml version="1.0" encoding="UTF-8" standalone="no"?>
<!DOCTYPE svg PUBLIC "-//W3C//DTD SVG 1.1//EN"
 "http://www.w3.org/Graphics/SVG/1.1/DTD/svg11.dtd">
<!-- Generated by graphviz version 2.43.0 (0)
 -->
<!-- Title: gui.PageKeygen.KeygenPage._generate_and_encrypt_keypair Pages: 1 -->
<svg width="375pt" height="134pt"
 viewBox="0.00 0.00 375.00 134.00" xmlns="http://www.w3.org/2000/svg" xmlns:xlink="http://www.w3.org/1999/xlink">
<g id="graph0" class="graph" transform="scale(1 1) rotate(0) translate(4 130)">
<title>gui.PageKeygen.KeygenPage._generate_and_encrypt_keypair</title>
<!-- Node1 -->
<g id="Node000001" class="node">
<title>Node1</title>
<g id="a_Node000001"><a xlink:title="Initiates RSA key pair generation and encryption process.">
<polygon fill="#999999" stroke="#666666" points="172,-78 0,-78 0,-48 172,-48 172,-78"/>
<text text-anchor="start" x="8" y="-66" font-family="Helvetica,sans-Serif" font-size="10.00">gui.PageKeygen.KeygenPage.</text>
<text text-anchor="middle" x="86" y="-55" font-family="Helvetica,sans-Serif" font-size="10.00">_generate_and_encrypt_keypair</text>
</a>
</g>
</g>
<!-- Node2 -->
<g id="Node000002" class="node">
<title>Node2</title>
<g id="a_Node000002"><a xlink:href="classgui_1_1PageKeygen_1_1KeygenPage.html#ab275367be11b21c44c69d669a4ada5f3" target="_top" xlink:title="Validates user input before key generation.">
<polygon fill="white" stroke="#666666" points="367,-126 208,-126 208,-96 367,-96 367,-126"/>
<text text-anchor="start" x="216" y="-114" font-family="Helvetica,sans-Serif" font-size="10.00">gui.PageKeygen.KeygenPage.</text>
<text text-anchor="middle" x="287.5" y="-103" font-family="Helvetica,sans-Serif" font-size="10.00">_validate_user_entries</text>
</a>
</g>
</g>
<!-- Node1&#45;&gt;Node2 -->
<g id="edge1_Node000001_Node000002" class="edge">
<title>Node1&#45;&gt;Node2</title>
<g id="a_edge1_Node000001_Node000002"><a xlink:title=" ">
<path fill="none" stroke="#63b8ff" d="M149.58,-78.06C170.09,-82.99 193.06,-88.52 214.24,-93.61"/>
<polygon fill="#63b8ff" stroke="#63b8ff" points="213.61,-97.06 224.15,-96 215.24,-90.26 213.61,-97.06"/>
</a>
</g>
</g>
<!-- Node3 -->
<g id="Node000003" class="node">
<title>Node3</title>
<g id="a_Node000003"><a xlink:href="classgui_1_1PageSign_1_1SignPage.html#aa2dd42151cefd12cb171bceb7418e7b3" target="_top" xlink:title="Validates user input before signing.">
<polygon fill="white" stroke="#666666" points="352,-78 223,-78 223,-48 352,-48 352,-78"/>
<text text-anchor="start" x="231" y="-66" font-family="Helvetica,sans-Serif" font-size="10.00">gui.PageSign.SignPage.</text>
<text text-anchor="middle" x="287.5" y="-55" font-family="Helvetica,sans-Serif" font-size="10.00">_validate_user_entries</text>
</a>
</g>
</g>
<!-- Node1&#45;&gt;Node3 -->
<g id="edge2_Node000001_Node000003" class="edge">
<title>Node1&#45;&gt;Node3</title>
<g id="a_edge2_Node000001_Node000003"><a xlink:title=" ">
<path fill="none" stroke="#63b8ff" d="M172.18,-63C185.56,-63 199.28,-63 212.38,-63"/>
<polygon fill="#63b8ff" stroke="#63b8ff" points="212.73,-66.5 222.73,-63 212.73,-59.5 212.73,-66.5"/>
</a>
</g>
</g>
<!-- Node4 -->
<g id="Node000004" class="node">
<title>Node4</title>
<g id="a_Node000004"><a xlink:href="classgui_1_1PageVerify_1_1VerifyPage.html#a8edb77a4634afaf45ff2006696d0f524" target="_top" xlink:title="Validates user input before verification.">
<polygon fill="white" stroke="#666666" points="358,-30 217,-30 217,0 358,0 358,-30"/>
<text text-anchor="start" x="225" y="-18" font-family="Helvetica,sans-Serif" font-size="10.00">gui.PageVerify.VerifyPage.</text>
<text text-anchor="middle" x="287.5" y="-7" font-family="Helvetica,sans-Serif" font-size="10.00">_validate_user_entries</text>
</a>
</g>
</g>
<!-- Node1&#45;&gt;Node4 -->
<g id="edge3_Node000001_Node000004" class="edge">
<title>Node1&#45;&gt;Node4</title>
<g id="a_edge3_Node000001_Node000004"><a xlink:title=" ">
<path fill="none" stroke="#63b8ff" d="M149.58,-47.94C170.09,-43.01 193.06,-37.48 214.24,-32.39"/>
<polygon fill="#63b8ff" stroke="#63b8ff" points="215.24,-35.74 224.15,-30 213.61,-28.94 215.24,-35.74"/>
</a>
</g>
</g>
</g>
</svg>
