<?xml version="1.0" encoding="UTF-8" standalone="no"?>
<!DOCTYPE svg PUBLIC "-//W3C//DTD SVG 1.1//EN"
 "http://www.w3.org/Graphics/SVG/1.1/DTD/svg11.dtd">
<!-- Generated by graphviz version 2.43.0 (0)
 -->
<!-- Title: gui.PageVerify.VerifyPage Pages: 1 -->
<svg width="147pt" height="456pt"
 viewBox="0.00 0.00 147.00 456.00" xmlns="http://www.w3.org/2000/svg" xmlns:xlink="http://www.w3.org/1999/xlink">
<g id="graph0" class="graph" transform="scale(1 1) rotate(0) translate(4 452)">
<title>gui.PageVerify.VerifyPage</title>
<!-- Node1 -->
<g id="Node000001" class="node">
<title>Node1</title>
<g id="a_Node000001"><a xlink:title="PDF signature verification page class.">
<polygon fill="#999999" stroke="transparent" points="139,-363 0,-363 0,0 139,0 139,-363"/>
<text text-anchor="start" x="9" y="-350.5" font-family="Helvetica,sans-Serif" font-size="10.00">gui.PageVerify.VerifyPage</text>
<text text-anchor="start" x="4.5" y="-335.5" font-family="Helvetica,sans-Serif" font-size="10.00">+</text>
<text text-anchor="start" x="17.5" y="-335.5" font-family="Helvetica,sans-Serif" font-size="10.00">parent_app</text>
<text text-anchor="start" x="4.5" y="-320.5" font-family="Helvetica,sans-Serif" font-size="10.00">+</text>
<text text-anchor="start" x="17.5" y="-320.5" font-family="Helvetica,sans-Serif" font-size="10.00">pdf_filepath</text>
<text text-anchor="start" x="4.5" y="-305.5" font-family="Helvetica,sans-Serif" font-size="10.00">#</text>
<text text-anchor="start" x="17.5" y="-305.5" font-family="Helvetica,sans-Serif" font-size="10.00">_btn_select_signed_pdf</text>
<text text-anchor="start" x="4.5" y="-290.5" font-family="Helvetica,sans-Serif" font-size="10.00">#</text>
<text text-anchor="start" x="17.5" y="-290.5" font-family="Helvetica,sans-Serif" font-size="10.00">_select_pdf_file</text>
<text text-anchor="start" x="4.5" y="-275.5" font-family="Helvetica,sans-Serif" font-size="10.00">#</text>
<text text-anchor="start" x="17.5" y="-275.5" font-family="Helvetica,sans-Serif" font-size="10.00">_selected_file_label</text>
<text text-anchor="start" x="4.5" y="-260.5" font-family="Helvetica,sans-Serif" font-size="10.00">#</text>
<text text-anchor="start" x="17.5" y="-260.5" font-family="Helvetica,sans-Serif" font-size="10.00">_btn_verify</text>
<text text-anchor="start" x="4.5" y="-245.5" font-family="Helvetica,sans-Serif" font-size="10.00">#</text>
<text text-anchor="start" x="17.5" y="-245.5" font-family="Helvetica,sans-Serif" font-size="10.00">_verify_pdf_file</text>
<text text-anchor="start" x="4.5" y="-230.5" font-family="Helvetica,sans-Serif" font-size="10.00">#</text>
<text text-anchor="start" x="17.5" y="-230.5" font-family="Helvetica,sans-Serif" font-size="10.00">_label_result</text>
<text text-anchor="start" x="4.5" y="-215.5" font-family="Helvetica,sans-Serif" font-size="10.00">#</text>
<text text-anchor="start" x="17.5" y="-215.5" font-family="Helvetica,sans-Serif" font-size="10.00">_progress_dialog</text>
<text text-anchor="start" x="4.5" y="-200.5" font-family="Helvetica,sans-Serif" font-size="10.00">#</text>
<text text-anchor="start" x="17.5" y="-200.5" font-family="Helvetica,sans-Serif" font-size="10.00">_verify_worker_thread</text>
<text text-anchor="start" x="4.5" y="-185.5" font-family="Helvetica,sans-Serif" font-size="10.00">#</text>
<text text-anchor="start" x="17.5" y="-185.5" font-family="Helvetica,sans-Serif" font-size="10.00">_verify_worker_update</text>
<text text-anchor="start" x="17.5" y="-174.5" font-family="Helvetica,sans-Serif" font-size="10.00">_progress</text>
<text text-anchor="start" x="4.5" y="-159.5" font-family="Helvetica,sans-Serif" font-size="10.00">#</text>
<text text-anchor="start" x="17.5" y="-159.5" font-family="Helvetica,sans-Serif" font-size="10.00">_verify_worker_task</text>
<text text-anchor="start" x="17.5" y="-148.5" font-family="Helvetica,sans-Serif" font-size="10.00">_finished</text>
<text text-anchor="start" x="4.5" y="-133.5" font-family="Helvetica,sans-Serif" font-size="10.00">+</text>
<text text-anchor="start" x="17.5" y="-133.5" font-family="Helvetica,sans-Serif" font-size="10.00">__init__()</text>
<text text-anchor="start" x="4.5" y="-118.5" font-family="Helvetica,sans-Serif" font-size="10.00">+</text>
<text text-anchor="start" x="17.5" y="-118.5" font-family="Helvetica,sans-Serif" font-size="10.00">refresh_page()</text>
<text text-anchor="start" x="4.5" y="-103.5" font-family="Helvetica,sans-Serif" font-size="10.00">#</text>
<text text-anchor="start" x="17.5" y="-103.5" font-family="Helvetica,sans-Serif" font-size="10.00">_init_ui()</text>
<text text-anchor="start" x="4.5" y="-88.5" font-family="Helvetica,sans-Serif" font-size="10.00">#</text>
<text text-anchor="start" x="17.5" y="-88.5" font-family="Helvetica,sans-Serif" font-size="10.00">_select_pdf_file()</text>
<text text-anchor="start" x="4.5" y="-73.5" font-family="Helvetica,sans-Serif" font-size="10.00">#</text>
<text text-anchor="start" x="17.5" y="-73.5" font-family="Helvetica,sans-Serif" font-size="10.00">_validate_user_entries()</text>
<text text-anchor="start" x="4.5" y="-58.5" font-family="Helvetica,sans-Serif" font-size="10.00">#</text>
<text text-anchor="start" x="17.5" y="-58.5" font-family="Helvetica,sans-Serif" font-size="10.00">_verify_pdf_file()</text>
<text text-anchor="start" x="4.5" y="-43.5" font-family="Helvetica,sans-Serif" font-size="10.00">#</text>
<text text-anchor="start" x="17.5" y="-43.5" font-family="Helvetica,sans-Serif" font-size="10.00">_verify_worker_update</text>
<text text-anchor="start" x="17.5" y="-32.5" font-family="Helvetica,sans-Serif" font-size="10.00">_progress()</text>
<text text-anchor="start" x="4.5" y="-17.5" font-family="Helvetica,sans-Serif" font-size="10.00">#</text>
<text text-anchor="start" x="17.5" y="-17.5" font-family="Helvetica,sans-Serif" font-size="10.00">_verify_worker_task</text>
<text text-anchor="start" x="17.5" y="-6.5" font-family="Helvetica,sans-Serif" font-size="10.00">_finished()</text>
<polygon fill="#666666" stroke="#666666" points="0.5,-345.5 0.5,-345.5 139.5,-345.5 139.5,-345.5 0.5,-345.5"/>
<polygon fill="#666666" stroke="#666666" points="0.5,-143.5 0.5,-143.5 15.5,-143.5 15.5,-143.5 0.5,-143.5"/>
<polygon fill="#666666" stroke="#666666" points="15.5,-143.5 15.5,-143.5 139.5,-143.5 139.5,-143.5 15.5,-143.5"/>
<polygon fill="none" stroke="#666666" points="0,0 0,-363 139,-363 139,0 0,0"/>
</a>
</g>
</g>
<!-- Node2 -->
<g id="Node000002" class="node">
<title>Node2</title>
<g id="a_Node000002"><a xlink:title=" ">
<polygon fill="white" stroke="transparent" points="96,-448 43,-448 43,-399 96,-399 96,-448"/>
<text text-anchor="start" x="48.5" y="-435.5" font-family="Helvetica,sans-Serif" font-size="10.00">QWidget</text>
<text text-anchor="start" x="68" y="-420.5" font-family="Helvetica,sans-Serif" font-size="10.00"> </text>
<text text-anchor="start" x="68" y="-405.5" font-family="Helvetica,sans-Serif" font-size="10.00"> </text>
<polygon fill="#666666" stroke="#666666" points="43.5,-430.5 43.5,-430.5 96.5,-430.5 96.5,-430.5 43.5,-430.5"/>
<polygon fill="#666666" stroke="#666666" points="43.5,-415.5 43.5,-415.5 96.5,-415.5 96.5,-415.5 43.5,-415.5"/>
<polygon fill="none" stroke="#666666" points="43,-399 43,-448 96,-448 96,-399 43,-399"/>
</a>
</g>
</g>
<!-- Node2&#45;&gt;Node1 -->
<g id="edge1_Node000001_Node000002" class="edge">
<title>Node2&#45;&gt;Node1</title>
<g id="a_edge1_Node000001_Node000002"><a xlink:title=" ">
<path fill="none" stroke="#63b8ff" d="M69.5,-388.55C69.5,-380.96 69.5,-372.4 69.5,-363.18"/>
<polygon fill="none" stroke="#63b8ff" points="66,-388.61 69.5,-398.61 73,-388.61 66,-388.61"/>
</a>
</g>
</g>
</g>
</svg>
