<?xml version="1.0" encoding="UTF-8" standalone="no"?>
<!DOCTYPE svg PUBLIC "-//W3C//DTD SVG 1.1//EN"
 "http://www.w3.org/Graphics/SVG/1.1/DTD/svg11.dtd">
<!-- Generated by graphviz version 2.43.0 (0)
 -->
<!-- Title: Graphical Class Hierarchy Pages: 1 -->
<svg width="266pt" height="134pt"
 viewBox="0.00 0.00 266.00 134.00" xmlns="http://www.w3.org/2000/svg" xmlns:xlink="http://www.w3.org/1999/xlink">
<g id="graph0" class="graph" transform="scale(1 1) rotate(0) translate(4 130)">
<title>Graphical Class Hierarchy</title>
<!-- Node0 -->
<g id="Node000000" class="node">
<title>Node0</title>
<g id="a_Node000000"><a xlink:title=" ">
<polygon fill="#e0e0e0" stroke="#999999" points="58,-72.5 0,-72.5 0,-53.5 58,-53.5 58,-72.5"/>
<text text-anchor="middle" x="29" y="-60.5" font-family="Helvetica,sans-Serif" font-size="10.00">QThread</text>
</a>
</g>
</g>
<!-- Node1 -->
<g id="Node000001" class="node">
<title>Node1</title>
<g id="a_Node000001"><a xlink:href="classutility_1_1PDFWorkerThread_1_1SignPDFWorkerThread.html" target="_top" xlink:title="Worker thread for PDF signing.">
<polygon fill="white" stroke="#666666" points="244.5,-126 107.5,-126 107.5,-96 244.5,-96 244.5,-126"/>
<text text-anchor="start" x="115.5" y="-114" font-family="Helvetica,sans-Serif" font-size="10.00">utility.PDFWorkerThread.</text>
<text text-anchor="middle" x="176" y="-103" font-family="Helvetica,sans-Serif" font-size="10.00">SignPDFWorkerThread</text>
</a>
</g>
</g>
<!-- Node0&#45;&gt;Node1 -->
<g id="edge2_Node000000_Node000001" class="edge">
<title>Node0&#45;&gt;Node1</title>
<g id="a_edge2_Node000000_Node000001"><a xlink:title=" ">
<path fill="none" stroke="#63b8ff" d="M63.55,-76.09C73.32,-79.76 84.04,-83.66 94,-87 103.04,-90.03 112.71,-93.07 122.11,-95.92"/>
<polygon fill="#63b8ff" stroke="#63b8ff" points="64.76,-72.81 54.17,-72.52 62.27,-79.35 64.76,-72.81"/>
</a>
</g>
</g>
<!-- Node2 -->
<g id="Node000002" class="node">
<title>Node2</title>
<g id="a_Node000002"><a xlink:href="classutility_1_1RSAWorkerThread_1_1RSAWorkerThread.html" target="_top" xlink:title="Worker thread for RSA key generation and encryption.">
<polygon fill="white" stroke="#666666" points="244.5,-78 107.5,-78 107.5,-48 244.5,-48 244.5,-78"/>
<text text-anchor="start" x="115.5" y="-66" font-family="Helvetica,sans-Serif" font-size="10.00">utility.RSAWorkerThread.</text>
<text text-anchor="middle" x="176" y="-55" font-family="Helvetica,sans-Serif" font-size="10.00">RSAWorkerThread</text>
</a>
</g>
</g>
<!-- Node0&#45;&gt;Node2 -->
<g id="edge3_Node000000_Node000002" class="edge">
<title>Node0&#45;&gt;Node2</title>
<g id="a_edge3_Node000000_Node000002"><a xlink:title=" ">
<path fill="none" stroke="#63b8ff" d="M68.39,-63C80.39,-63 94.02,-63 107.41,-63"/>
<polygon fill="#63b8ff" stroke="#63b8ff" points="68.3,-59.5 58.3,-63 68.3,-66.5 68.3,-59.5"/>
</a>
</g>
</g>
<!-- Node3 -->
<g id="Node000003" class="node">
<title>Node3</title>
<g id="a_Node000003"><a xlink:href="classutility_1_1VerifyPDFWorkerThread_1_1VerifyPDFWorkerThread.html" target="_top" xlink:title="Worker thread for PDF signature verification.">
<polygon fill="white" stroke="#666666" points="258,-30 94,-30 94,0 258,0 258,-30"/>
<text text-anchor="start" x="102" y="-18" font-family="Helvetica,sans-Serif" font-size="10.00">utility.VerifyPDFWorkerThread.</text>
<text text-anchor="middle" x="176" y="-7" font-family="Helvetica,sans-Serif" font-size="10.00">VerifyPDFWorkerThread</text>
</a>
</g>
</g>
<!-- Node0&#45;&gt;Node3 -->
<g id="edge4_Node000000_Node000003" class="edge">
<title>Node0&#45;&gt;Node3</title>
<g id="a_edge4_Node000000_Node000003"><a xlink:title=" ">
<path fill="none" stroke="#63b8ff" d="M63.55,-49.91C73.32,-46.24 84.04,-42.34 94,-39 103.04,-35.97 112.71,-32.93 122.11,-30.08"/>
<polygon fill="#63b8ff" stroke="#63b8ff" points="62.27,-46.65 54.17,-53.48 64.76,-53.19 62.27,-46.65"/>
</a>
</g>
</g>
</g>
</svg>
