<?xml version="1.0" encoding="UTF-8" standalone="no"?>
<!DOCTYPE svg PUBLIC "-//W3C//DTD SVG 1.1//EN"
 "http://www.w3.org/Graphics/SVG/1.1/DTD/svg11.dtd">
<!-- Generated by graphviz version 2.43.0 (0)
 -->
<!-- Title: Graphical Class Hierarchy Pages: 1 -->
<svg width="271pt" height="175pt"
 viewBox="0.00 0.00 271.00 175.00" xmlns="http://www.w3.org/2000/svg" xmlns:xlink="http://www.w3.org/1999/xlink">
<g id="graph0" class="graph" transform="scale(1 1) rotate(0) translate(4 171)">
<title>Graphical Class Hierarchy</title>
<!-- Node0 -->
<g id="Node000000" class="node">
<title>Node0</title>
<g id="a_Node000000"><a xlink:title=" ">
<polygon fill="#e0e0e0" stroke="#999999" points="59,-93 0,-93 0,-74 59,-74 59,-93"/>
<text text-anchor="middle" x="29.5" y="-81" font-family="Helvetica,sans-Serif" font-size="10.00">QWidget</text>
</a>
</g>
</g>
<!-- Node1 -->
<g id="Node000001" class="node">
<title>Node1</title>
<g id="a_Node000001"><a xlink:href="classgui_1_1AuxiliaryApp_1_1AuxiliaryApp.html" target="_top" xlink:title="Auxiliary application window class.">
<polygon fill="white" stroke="#666666" points="260,-167 98,-167 98,-148 260,-148 260,-167"/>
<text text-anchor="middle" x="179" y="-155" font-family="Helvetica,sans-Serif" font-size="10.00">gui.AuxiliaryApp.AuxiliaryApp</text>
</a>
</g>
</g>
<!-- Node0&#45;&gt;Node1 -->
<g id="edge5_Node000000_Node000001" class="edge">
<title>Node0&#45;&gt;Node1</title>
<g id="a_edge5_Node000000_Node000001"><a xlink:title=" ">
<path fill="none" stroke="#63b8ff" d="M45.68,-100.69C57.79,-113.33 75.86,-129.91 95,-139.5 101.86,-142.93 109.35,-145.71 116.94,-147.97"/>
<polygon fill="#63b8ff" stroke="#63b8ff" points="47.98,-98.03 38.62,-93.06 42.84,-102.78 47.98,-98.03"/>
</a>
</g>
</g>
<!-- Node2 -->
<g id="Node000002" class="node">
<title>Node2</title>
<g id="a_Node000002"><a xlink:href="classgui_1_1PageKeygen_1_1KeygenPage.html" target="_top" xlink:title="Key generation page class.">
<polygon fill="white" stroke="#666666" points="257,-130 101,-130 101,-111 257,-111 257,-130"/>
<text text-anchor="middle" x="179" y="-118" font-family="Helvetica,sans-Serif" font-size="10.00">gui.PageKeygen.KeygenPage</text>
</a>
</g>
</g>
<!-- Node0&#45;&gt;Node2 -->
<g id="edge6_Node000000_Node000002" class="edge">
<title>Node0&#45;&gt;Node2</title>
<g id="a_edge6_Node000000_Node000002"><a xlink:title=" ">
<path fill="none" stroke="#63b8ff" d="M69,-95.34C77.53,-97.82 86.55,-100.34 95,-102.5 106.57,-105.45 119.13,-108.34 130.89,-110.91"/>
<polygon fill="#63b8ff" stroke="#63b8ff" points="69.86,-91.94 59.27,-92.46 67.87,-98.66 69.86,-91.94"/>
</a>
</g>
</g>
<!-- Node3 -->
<g id="Node000003" class="node">
<title>Node3</title>
<g id="a_Node000003"><a xlink:href="classgui_1_1PageSign_1_1SignPage.html" target="_top" xlink:title="PDF signing page class.">
<polygon fill="white" stroke="#666666" points="242,-93 116,-93 116,-74 242,-74 242,-93"/>
<text text-anchor="middle" x="179" y="-81" font-family="Helvetica,sans-Serif" font-size="10.00">gui.PageSign.SignPage</text>
</a>
</g>
</g>
<!-- Node0&#45;&gt;Node3 -->
<g id="edge7_Node000000_Node000003" class="edge">
<title>Node0&#45;&gt;Node3</title>
<g id="a_edge7_Node000000_Node000003"><a xlink:title=" ">
<path fill="none" stroke="#63b8ff" d="M69.62,-83.5C83.76,-83.5 100.09,-83.5 115.71,-83.5"/>
<polygon fill="#63b8ff" stroke="#63b8ff" points="69.29,-80 59.29,-83.5 69.29,-87 69.29,-80"/>
</a>
</g>
</g>
<!-- Node4 -->
<g id="Node000004" class="node">
<title>Node4</title>
<g id="a_Node000004"><a xlink:href="classgui_1_1PageVerify_1_1VerifyPage.html" target="_top" xlink:title="PDF signature verification page class.">
<polygon fill="white" stroke="#666666" points="248,-56 110,-56 110,-37 248,-37 248,-56"/>
<text text-anchor="middle" x="179" y="-44" font-family="Helvetica,sans-Serif" font-size="10.00">gui.PageVerify.VerifyPage</text>
</a>
</g>
</g>
<!-- Node0&#45;&gt;Node4 -->
<g id="edge8_Node000000_Node000004" class="edge">
<title>Node0&#45;&gt;Node4</title>
<g id="a_edge8_Node000000_Node000004"><a xlink:title=" ">
<path fill="none" stroke="#63b8ff" d="M69.05,-72.42C77.57,-70.06 86.58,-67.64 95,-65.5 107.75,-62.26 121.67,-58.98 134.4,-56.07"/>
<polygon fill="#63b8ff" stroke="#63b8ff" points="68.01,-69.08 59.32,-75.14 69.89,-75.82 68.01,-69.08"/>
</a>
</g>
</g>
<!-- Node5 -->
<g id="Node000005" class="node">
<title>Node5</title>
<g id="a_Node000005"><a xlink:href="classgui_1_1SignatureApp_1_1SignatureApp.html" target="_top" xlink:title="Signature application window class.">
<polygon fill="white" stroke="#666666" points="263,-19 95,-19 95,0 263,0 263,-19"/>
<text text-anchor="middle" x="179" y="-7" font-family="Helvetica,sans-Serif" font-size="10.00">gui.SignatureApp.SignatureApp</text>
</a>
</g>
</g>
<!-- Node0&#45;&gt;Node5 -->
<g id="edge9_Node000000_Node000005" class="edge">
<title>Node0&#45;&gt;Node5</title>
<g id="a_edge9_Node000000_Node000005"><a xlink:title=" ">
<path fill="none" stroke="#63b8ff" d="M46.18,-66.27C58.34,-53.94 76.23,-37.93 95,-28.5 102.66,-24.65 111.11,-21.57 119.6,-19.11"/>
<polygon fill="#63b8ff" stroke="#63b8ff" points="43.44,-64.07 39.07,-73.72 48.5,-68.9 43.44,-64.07"/>
</a>
</g>
</g>
</g>
</svg>
