<?xml version="1.0" encoding="UTF-8" standalone="no"?>
<!DOCTYPE svg PUBLIC "-//W3C//DTD SVG 1.1//EN"
 "http://www.w3.org/Graphics/SVG/1.1/DTD/svg11.dtd">
<!-- Generated by graphviz version 2.43.0 (0)
 -->
<!-- Title: Graphical Class Hierarchy Pages: 1 -->
<svg width="271pt" height="138pt"
 viewBox="0.00 0.00 271.00 138.00" xmlns="http://www.w3.org/2000/svg" xmlns:xlink="http://www.w3.org/1999/xlink">
<g id="graph0" class="graph" transform="scale(1 1) rotate(0) translate(4 134)">
<title>Graphical Class Hierarchy</title>
<!-- Node0 -->
<g id="Node000000" class="node">
<title>Node0</title>
<g id="a_Node000000"><a xlink:title=" ">
<polygon fill="#e0e0e0" stroke="#999999" points="59,-74 0,-74 0,-55 59,-55 59,-74"/>
<text text-anchor="middle" x="29.5" y="-62" font-family="Helvetica,sans-Serif" font-size="10.00">QWidget</text>
</a>
</g>
</g>
<!-- Node1 -->
<g id="Node000001" class="node">
<title>Node1</title>
<g id="a_Node000001"><a xlink:href="classgui_1_1PageKeygen_1_1KeygenPage.html" target="_top" xlink:title="Key generation page class.">
<polygon fill="white" stroke="#666666" points="257,-130 101,-130 101,-111 257,-111 257,-130"/>
<text text-anchor="middle" x="179" y="-118" font-family="Helvetica,sans-Serif" font-size="10.00">gui.PageKeygen.KeygenPage</text>
</a>
</g>
</g>
<!-- Node0&#45;&gt;Node1 -->
<g id="edge5_Node000000_Node000001" class="edge">
<title>Node0&#45;&gt;Node1</title>
<g id="a_edge5_Node000000_Node000001"><a xlink:title=" ">
<path fill="none" stroke="#63b8ff" d="M52.67,-79.95C64.71,-87.72 80.15,-96.69 95,-102.5 103.51,-105.83 112.77,-108.6 121.91,-110.9"/>
<polygon fill="#63b8ff" stroke="#63b8ff" points="54.45,-76.93 44.18,-74.32 50.58,-82.76 54.45,-76.93"/>
</a>
</g>
</g>
<!-- Node2 -->
<g id="Node000002" class="node">
<title>Node2</title>
<g id="a_Node000002"><a xlink:href="classgui_1_1PageSign_1_1SignPage.html" target="_top" xlink:title="PDF signing page class.">
<polygon fill="white" stroke="#666666" points="242,-93 116,-93 116,-74 242,-74 242,-93"/>
<text text-anchor="middle" x="179" y="-81" font-family="Helvetica,sans-Serif" font-size="10.00">gui.PageSign.SignPage</text>
</a>
</g>
</g>
<!-- Node0&#45;&gt;Node2 -->
<g id="edge6_Node000000_Node000002" class="edge">
<title>Node0&#45;&gt;Node2</title>
<g id="a_edge6_Node000000_Node000002"><a xlink:title=" ">
<path fill="none" stroke="#63b8ff" d="M69.62,-69.54C83.76,-71.36 100.09,-73.46 115.71,-75.48"/>
<polygon fill="#63b8ff" stroke="#63b8ff" points="69.65,-66.01 59.29,-68.21 68.76,-72.96 69.65,-66.01"/>
</a>
</g>
</g>
<!-- Node3 -->
<g id="Node000003" class="node">
<title>Node3</title>
<g id="a_Node000003"><a xlink:href="classgui_1_1PageVerify_1_1VerifyPage.html" target="_top" xlink:title="PDF signature verification page class.">
<polygon fill="white" stroke="#666666" points="248,-56 110,-56 110,-37 248,-37 248,-56"/>
<text text-anchor="middle" x="179" y="-44" font-family="Helvetica,sans-Serif" font-size="10.00">gui.PageVerify.VerifyPage</text>
</a>
</g>
</g>
<!-- Node0&#45;&gt;Node3 -->
<g id="edge7_Node000000_Node000003" class="edge">
<title>Node0&#45;&gt;Node3</title>
<g id="a_edge7_Node000000_Node000003"><a xlink:title=" ">
<path fill="none" stroke="#63b8ff" d="M69.3,-59.76C81.76,-58.24 95.95,-56.51 109.87,-54.81"/>
<polygon fill="#63b8ff" stroke="#63b8ff" points="68.79,-56.3 59.29,-60.99 69.64,-63.25 68.79,-56.3"/>
</a>
</g>
</g>
<!-- Node4 -->
<g id="Node000004" class="node">
<title>Node4</title>
<g id="a_Node000004"><a xlink:href="classgui_1_1SignatureApp_1_1SignatureApp.html" target="_top" xlink:title="Main application window class.">
<polygon fill="white" stroke="#666666" points="263,-19 95,-19 95,0 263,0 263,-19"/>
<text text-anchor="middle" x="179" y="-7" font-family="Helvetica,sans-Serif" font-size="10.00">gui.SignatureApp.SignatureApp</text>
</a>
</g>
</g>
<!-- Node0&#45;&gt;Node4 -->
<g id="edge8_Node000000_Node000004" class="edge">
<title>Node0&#45;&gt;Node4</title>
<g id="a_edge8_Node000000_Node000004"><a xlink:title=" ">
<path fill="none" stroke="#63b8ff" d="M53.63,-49.48C65.58,-42.27 80.64,-34.02 95,-28.5 104.8,-24.73 115.54,-21.59 125.96,-19.03"/>
<polygon fill="#63b8ff" stroke="#63b8ff" points="51.43,-46.72 44.78,-54.97 55.12,-52.67 51.43,-46.72"/>
</a>
</g>
</g>
</g>
</svg>
